<svg width="520" height="512" viewBox="0 0 520 512" fill="none" xmlns="http://www.w3.org/2000/svg">
<g clip-path="url(#clip0_498_55)" filter="url(#filter0_d_498_55)">
<path fill-rule="evenodd" clip-rule="evenodd" d="M443.424 68.3631C435.276 71.3931 431.151 74.0641 425.825 79.7571C419.958 86.0301 416.457 92.1491 414.553 99.4601C407.084 128.143 428.524 156 458.068 156C480.99 156 499.004 140.755 503.088 117.901C506.073 101.2 497.673 82.4151 483.015 73.0091C471.762 65.7881 455.488 63.8781 443.424 68.3631ZM453.501 97.4801C440.429 102.192 441.196 121.283 454.602 124.893C460.042 126.357 465.089 124.802 468.869 120.497C472.492 116.372 473.623 111.416 472.039 106.615C470.875 103.089 464.992 97.0121 462.716 96.9861C462.048 96.9791 460.601 96.7621 459.501 96.5061C458.401 96.2491 455.701 96.6871 453.501 97.4801ZM128.001 157.604C111.77 161.949 101.741 172.434 100.28 186.585C99.0017 198.971 101.802 202.044 114.426 202.11C125.656 202.169 130.001 199.067 130.001 190.991C130.001 189.389 131.072 186.867 132.414 185.306C134.688 182.663 135.296 182.5 142.892 182.5C150.358 182.5 151.16 182.704 153.709 185.253C156.112 187.657 156.508 188.928 156.817 195.253C157.126 201.566 156.866 202.951 154.803 206C152.426 209.511 150.983 210.121 141.703 211.531C138.828 211.968 137.432 212.885 135.957 215.304C132.423 221.1 134.066 231.359 138.946 233.97C140.004 234.537 142.812 235.025 145.185 235.056C151.231 235.136 155.956 237.018 158.407 240.323C161.251 244.158 161.466 259.115 158.737 263.28C155.512 268.202 152.341 269.5 143.545 269.5C133.169 269.5 128.903 267.336 127.68 261.451C126.039 253.558 125.476 252.498 121.99 250.752C117.663 248.583 107.314 248.424 102.463 250.452C98.0097 252.312 96.6397 255.8 97.4007 263.343C98.8657 277.876 108.979 289.061 125.287 294.184C138.253 298.258 159.948 296.385 171.34 290.209C178.016 286.589 185.385 278.232 188.061 271.247C191.069 263.394 191.879 247.53 189.661 239.903C187.794 233.479 182.429 226.769 176.907 223.952L173.029 221.974L176.971 217.911C182.671 212.038 185.233 204.628 185.755 192.5C186.124 183.947 185.867 181.651 183.979 176.635C178.752 162.748 165.401 155.969 143.501 156.081C138.001 156.109 131.026 156.794 128.001 157.604ZM244.825 157.543C235.916 159.704 229.957 162.958 223.914 168.963C217.493 175.343 214.447 182.156 212.984 193.417C211.771 202.744 211.799 250.464 213.022 259.888C214.726 273.018 220.435 282.739 230.115 288.996C237.618 293.844 247.423 296.273 259.501 296.273C283.427 296.273 298.378 286.739 304.125 267.817C305.926 261.888 306.172 259.026 305.814 248.188C305.444 236.968 305.074 234.791 302.617 229.374C297.612 218.337 288.575 212.184 274.071 209.94C263.51 208.306 249.191 210.656 245.956 214.555C243.342 217.704 242.839 215.813 243.167 204.069C243.538 190.814 244.524 188.366 251.019 184.563C254.937 182.268 265.117 181.919 269.001 183.946C273.216 186.145 276.001 189.232 276.001 191.706C276.001 196.34 278.773 201.007 282.433 202.536C287.625 204.706 297.77 204.438 301.724 202.027C305.566 199.685 306.378 197.029 305.791 188.724C304.706 173.355 291.72 160.36 274.11 157.021C266.702 155.616 251.666 155.884 244.825 157.543ZM359.001 157.814C343.286 161.922 333.539 172.103 330.032 188.073C329.191 191.901 328.946 204.11 329.2 229.5C329.598 269.382 329.611 269.467 336.538 279.588C345.148 292.166 362.821 298.278 383.738 295.913C403.114 293.722 415.305 284.487 420.586 268C422.073 263.36 422.413 257.542 422.759 230.797C423.216 195.504 422.541 187.963 418.063 178.349C411.108 163.415 396.725 155.974 375.001 156.072C369.418 156.098 362.821 156.816 359.001 157.814ZM370.298 183.172C365.328 184.268 361.547 188.259 359.986 194.056C359.307 196.578 359.024 209.028 359.21 228.261C359.47 255.271 359.698 258.896 361.344 262.206C366.533 272.64 385.21 272.365 390.013 261.784C391.805 257.836 391.959 255.037 391.979 226.066C392 196.762 391.867 194.354 390.022 190.544C386.831 183.951 379.385 181.168 370.298 183.172ZM62.8377 203.945C59.3737 205.032 46.3197 213.771 37.7377 220.75C5.59365 246.885 -4.51534 282.08 11.1437 313.329C23.1207 337.229 50.5207 359.401 87.4107 375.044C120.555 389.099 151.227 396.49 205.859 403.589L210.217 404.155L201.212 413.338C194.314 420.372 191.94 423.512 191.066 426.76C188.014 438.094 197.631 447.757 209.751 445.535C212.962 444.947 216.831 441.518 236.675 421.674C269.227 389.122 269.226 392.86 236.682 360.327C217.309 340.961 212.839 336.981 209.469 336.097C201.315 333.96 193.243 338.673 191.039 346.857C189.276 353.404 190.918 357.346 198.725 365.311L205.501 372.223L198.001 371.539C187.947 370.622 170.474 367.608 154.557 364.045C87.3137 348.994 39.9737 319.055 34.9887 288.425C33.8227 281.261 35.1057 274.368 39.1627 266C43.2237 257.623 57.1867 243.52 69.1567 235.706C79.1367 229.191 81.5717 226.498 82.5107 220.943C83.3727 215.84 79.8767 208.309 75.5007 205.842C71.6767 203.687 66.2517 202.874 62.8377 203.945ZM459.276 210.054C452.463 211.497 448.201 216.094 447.275 222.996C446.416 229.397 449.165 234.191 457.039 240.028C460.73 242.764 466.899 248.318 470.748 252.371C494.684 277.569 489.054 303.851 454.501 328.215C428.096 346.833 388.292 360.918 339.118 369.045C319.386 372.306 317.238 373.132 313.251 378.99C308.676 385.713 311.541 395.687 319.301 400.048C323.276 402.282 323.596 402.304 333.933 401.052C339.745 400.347 352.826 398.078 363.001 396.009C420.835 384.248 463.381 364.768 490.599 337.584C502.761 325.438 508.463 316.985 512.708 304.807C516.067 295.174 516.942 278.669 514.619 268.77C510.717 252.145 500.202 236.101 484.287 222.491C470.835 210.987 466.066 208.616 459.276 210.054ZM251.072 234.752C245.215 237.738 243.547 241.046 243.153 250.457C242.54 265.115 247.221 271.314 259.001 271.441C266.165 271.518 270.452 269.619 273.242 265.132C276.404 260.047 276.536 245.282 273.467 240C270.863 235.519 265.841 233.003 259.501 233.003C256.715 233.003 252.983 233.777 251.072 234.752Z" fill="#D9D9D9"/>
</g>
<defs>
<filter id="filter0_d_498_55" x="0" y="0" width="520" height="520" filterUnits="userSpaceOnUse" color-interpolation-filters="sRGB">
<feFlood flood-opacity="0" result="BackgroundImageFix"/>
<feColorMatrix in="SourceAlpha" type="matrix" values="0 0 0 0 0 0 0 0 0 0 0 0 0 0 0 0 0 0 127 0" result="hardAlpha"/>
<feOffset dy="4"/>
<feGaussianBlur stdDeviation="2"/>
<feComposite in2="hardAlpha" operator="out"/>
<feColorMatrix type="matrix" values="0 0 0 0 0 0 0 0 0 0 0 0 0 0 0 0 0 0 0.25 0"/>
<feBlend mode="normal" in2="BackgroundImageFix" result="effect1_dropShadow_498_55"/>
<feBlend mode="normal" in="SourceGraphic" in2="effect1_dropShadow_498_55" result="shape"/>
</filter>
<clipPath id="clip0_498_55">
<rect width="512" height="512" fill="white" transform="translate(4)"/>
</clipPath>
</defs>
</svg>
