<svg width="513" height="513" viewBox="0 0 513 513" fill="none" xmlns="http://www.w3.org/2000/svg">
<path fill-rule="evenodd" clip-rule="evenodd" d="M148.501 2.58608C94.5939 12.0651 50.9989 57.2201 43.8399 110.993L42.6669 119.804L30.5839 120.188C17.1819 120.615 13.1859 121.968 6.96592 128.189C0.0209231 135.134 0.044923 134.956 0.044923 180C0.044923 217.064 0.199923 220.839 1.86792 224.5C4.61092 230.517 8.47492 234.559 14.2209 237.422C18.8909 239.75 20.5269 240 31.0589 240H42.7249L43.3879 246.469C43.7519 250.027 45.1119 257.115 46.4109 262.219C52.6189 286.634 63.3819 305.426 81.3009 323.139C103.881 345.46 135.569 358.928 166.501 359.35C176.988 359.493 177.754 359.36 182.924 356.5C188.598 353.361 193.152 348.101 194.973 342.585L196.048 339.328L205.577 349.027L215.105 358.725L185.541 414.5C169.281 445.176 155.257 472.75 154.378 475.774C150.441 489.318 157.099 503.477 170.511 510.08C176.498 513.027 177.544 513.226 184.849 512.803C194.492 512.244 201.765 508.637 206.808 501.911C208.628 499.485 222.734 473.65 238.155 444.5C253.577 415.35 266.504 391.169 266.883 390.765C267.262 390.36 269.85 390.895 272.634 391.953C279.187 394.442 295.934 398.79 302.149 399.614L307.001 400.258L307.007 437.379C307.01 459.865 307.42 475.968 308.047 478.225C310.742 487.931 321.502 496 331.749 496C340.204 496 344.874 494.153 350.657 488.521C358.801 480.59 359.001 479.342 359.001 436.527V400.418L368.016 398.713C372.975 397.776 381.842 395.449 387.721 393.543C393.601 391.636 398.501 390.172 398.612 390.288C398.722 390.405 411.902 415.25 427.901 445.5C453.539 493.977 457.579 501.053 461.967 505.16C468.479 511.256 474.8 513.406 484.38 512.784C492.812 512.237 496.832 510.403 503.263 504.168C511.945 495.751 514.49 482.432 509.601 471C508.308 467.975 494.465 441.432 478.84 412.015L450.431 358.53L456.663 352.7C482.632 328.407 502.056 293.05 508.978 257.47C511.942 242.239 511.418 256.579 511.066 214C511.486 215.375 510.888 235.725 511.066 214C502.415 185.663 453.021 164.119 379.501 156.615C317.475 150.285 248.327 157.25 203.78 174.314L197.059 176.888L196.78 98.6941L196.501 20.5001L194.167 15.7611C191.312 9.96408 184.471 3.75708 179.194 2.17608C174.008 0.622085 158.49 0.830085 148.501 2.58608ZM275.456 3.45508C274.105 4.80508 273.001 7.08108 273.001 8.51608C273.001 10.4341 271.163 12.8941 266.053 17.8141C258.183 25.3941 255.991 29.6331 256.023 37.2181C256.054 44.6571 258.939 50.2301 266.512 57.4741C270.081 60.8881 273.001 64.3001 273.001 65.0541C273.001 65.8091 270.094 69.1431 266.542 72.4631C259.307 79.2251 256.056 85.2271 256.023 91.8841C255.982 100.086 257.881 103.98 265.703 111.738C270.978 116.969 273.001 119.684 273.001 121.533C273.001 128.073 282.188 131.323 287.576 126.689C289.834 124.747 290.247 123.612 290.166 119.576C290.03 112.795 286.745 106.773 279.895 100.743C272.083 93.8661 272.031 91.8161 279.511 85.3581C293.629 73.1691 293.605 56.5941 279.451 44.5011C271.998 38.1341 272.061 35.9871 279.904 29.1651C286.757 23.2051 290.029 17.2291 290.166 10.4241C290.247 6.38808 289.834 5.25308 287.576 3.31108C283.914 0.161085 278.687 0.223084 275.456 3.45508ZM326.456 3.45508C325.051 4.85908 324.001 7.07408 324.001 8.63208C324.001 10.6901 322.42 12.8381 317.528 17.4281C303.434 30.6501 303.305 43.5181 317.133 56.8371C320.91 60.4761 324.001 64.2251 324.001 65.1691C324.001 66.1131 321.485 69.0481 318.41 71.6921C311.321 77.7871 308.027 83.3441 307.295 90.4451C306.43 98.8191 308.823 104.09 317.141 112.134C322.24 117.066 324.001 119.452 324.001 121.43C324.001 125.462 328.105 129 332.781 129C340.857 129 343.769 120.959 339.299 111C337.223 106.375 335.093 103.833 328.688 98.3351C323.351 93.7551 323.717 91.2521 330.58 85.3881C344.974 73.0911 345.111 57.2241 330.93 44.9381C323.156 38.2031 322.978 35.7301 329.883 30.3231C335.839 25.6591 338.69 21.6751 340.611 15.3311C342.28 9.82009 341.766 6.47908 338.753 3.25008C335.779 0.0640845 329.746 0.164085 326.456 3.45508ZM378.914 2.28208C376.88 3.84408 375.001 7.37208 375.001 9.63108C375.001 10.6001 371.919 14.3421 368.152 17.9461C362.747 23.1181 360.929 25.6321 359.532 29.8681C356.215 39.9261 358.988 48.0061 368.902 57.1681C375.378 63.1531 376.329 65.7431 373.152 68.7501C372.135 69.7131 369.415 72.2441 367.108 74.3761C359.1 81.7751 356.448 90.8021 359.542 100.132C360.947 104.369 362.764 106.873 368.162 112.013C371.923 115.596 375.001 119.338 375.001 120.329C375.001 125.139 378.97 128.923 384.062 128.968C390.809 129.028 394.108 123.452 392.083 115.41C390.583 109.456 387.198 104.493 381.021 99.1951C377.898 96.5161 376.001 94.0801 376.001 92.7481C376.001 91.4081 378.558 88.1571 382.84 84.0541C392.843 74.4681 394.953 67.2921 390.93 56.5391C389.311 52.2121 387.455 49.7631 382.43 45.3241C374.321 38.1611 374.217 36.6561 381.397 30.4571C395.182 18.5561 396.731 1.06408 384.001 1.06408C382.076 1.06408 379.787 1.61208 378.914 2.28208ZM165.001 18.6891C118.22 21.6631 78.7129 52.5021 64.9839 96.7621C60.4749 111.296 60.0129 118.984 60.0069 179.526C60.0009 239.687 60.4199 247.242 64.5649 261.742C69.6879 279.66 78.0569 293.94 91.7729 308.169C111.201 328.323 135.658 339.649 164.11 341.668L172.865 342.29L175.942 339.213L179.02 336.135L178.76 179.595C178.503 24.5291 178.482 23.0371 176.501 21.1491C174.164 18.9221 171.224 18.2931 165.001 18.6891ZM141.179 39.5451C105.866 51.5741 81.2089 82.2131 77.0859 119.188C75.8369 130.394 76.7299 134.291 81.0599 136.53C85.0809 138.61 87.4129 138.366 90.8049 135.511C93.5199 133.227 93.8219 132.314 94.4829 124.377C97.2669 90.9531 118.038 65.3051 150.233 55.5391C159.813 52.6331 162.001 50.7161 162.001 45.2321C162.001 43.0371 161.168 41.0761 159.546 39.4551C156.313 36.2221 150.857 36.2491 141.179 39.5451ZM20.3069 140.412L17.5009 142.825L17.1939 177.162C17.0249 196.048 17.1619 212.988 17.4989 214.806C18.6399 220.958 20.7409 222 32.0009 222H42.0009V180V138H32.5569C24.0169 138 22.8439 138.231 20.3069 140.412ZM0.457923 180C0.457923 202.825 0.588923 212.163 0.749923 200.75C0.909923 189.338 0.909923 170.663 0.749923 159.25C0.588923 147.838 0.457923 157.175 0.457923 180ZM317.211 182.75C312.315 231.183 308.764 272.096 309.401 272.733C310.263 273.595 355.614 273.72 356.471 272.863C356.773 272.561 354.881 249.743 352.267 222.157L347.514 172H332.905H318.297L317.211 182.75ZM285.688 174.51C279.191 175.215 273.757 175.952 273.614 176.146C273.471 176.341 267.938 196.525 261.319 221L249.285 265.5L254.67 266.759C259.771 267.951 290.233 272.148 290.586 271.707C290.763 271.486 300.055 175.015 300.021 173.75C300.01 173.338 299.439 173.051 298.751 173.113C298.064 173.175 292.185 173.804 285.688 174.51ZM366.007 175.797C366.016 179.452 374.83 271.171 375.204 271.503C376.161 272.352 414.577 266.758 415.733 265.602C416.266 265.069 392.593 177.259 391.667 176.332C391.202 175.868 384.877 175.032 371.251 173.633C366.079 173.102 366.001 173.134 366.007 175.797ZM242.22 181.519C228.055 184.797 216.093 188.51 205.753 192.838L197.006 196.5L197.003 222.805L197.001 249.11L202.751 251.662C208.385 254.162 231.232 262.111 231.619 261.706C231.899 261.412 254.001 180.342 254.001 179.608C254.001 178.793 253.989 178.795 242.22 181.519ZM413.583 187.688C414.918 192.534 419.906 210.9 424.668 228.5C429.429 246.1 433.59 260.811 433.913 261.192C434.495 261.877 454.903 255.509 460.29 252.962C461.824 252.237 462.949 251.155 462.79 250.558C462.631 249.961 456.201 234.761 448.501 216.779L434.501 184.085L426.001 182.124C421.326 181.046 416.073 179.874 414.328 179.519L411.156 178.875L413.583 187.688ZM467.194 215.25C472.697 228.037 477.602 239.536 478.095 240.802C479.164 243.549 480.194 243.124 486.146 237.484C492.019 231.919 493.993 228.264 493.997 222.946C494.002 216.729 489.775 210.302 481.837 204.458C476.114 200.245 460.44 192 458.155 192C457.624 192 461.692 202.463 467.194 215.25ZM476.501 264.505C459.189 273.299 445.599 277.843 423.001 282.395C390.421 288.958 368.52 291.053 332.501 291.05C298.458 291.048 275.597 289.007 246.651 283.385C232.605 280.656 214.158 275.527 204.061 271.542C200.52 270.144 197.482 269 197.311 269C197.141 269 197.001 278.411 197.001 289.913V310.827L203.048 318.982C206.374 323.468 212.336 330.519 216.298 334.651L223.501 342.163L226.742 337.565C230.358 332.436 237.412 327.505 243.47 325.874C249.265 324.313 258.733 325.198 264.101 327.802C278.996 335.027 285.423 352.661 278.597 367.572C277.169 370.69 276.001 373.406 276.001 373.607C276.001 374.409 283.01 376.817 292.501 379.278C316.531 385.508 340.276 386.201 364.501 381.379C371.522 379.982 387.277 375.509 389.187 374.37C389.564 374.145 388.744 371.496 387.365 368.484C380.285 353.018 386.05 335.527 400.568 328.423C415.631 321.054 432.412 326.264 441.041 340.988C441.757 342.209 442.566 341.849 445.539 338.988C460.654 324.446 476.319 300.674 483.687 281.1C486.244 274.308 491.205 257.793 490.763 257.542C490.619 257.46 484.201 260.593 476.501 264.505ZM244.638 344.696C242.422 346.092 233.867 361.423 206.802 412.5C187.567 448.8 171.594 479.903 171.306 481.618C170.613 485.746 173.491 491.685 177.086 493.544C178.635 494.345 181.731 495 183.966 495C187.189 495 188.733 494.327 191.423 491.75C193.741 489.529 205.31 468.63 227.963 425.742C246.193 391.226 261.773 361.397 262.584 359.456C264.43 355.039 263.161 349.438 259.545 346.041C256.182 342.882 248.602 342.198 244.638 344.696ZM407.757 344.755C404.593 346.716 402.001 351.575 402.001 355.542C402.001 357.218 415.678 384.114 437.211 424.784C475.49 497.08 474.13 494.989 482.851 494.996C486.467 494.999 487.774 494.427 490.601 491.6C493.479 488.722 494.001 487.496 494.001 483.613C494.001 479.514 490.337 472.099 459.483 413.763C437.575 372.344 423.869 347.495 421.967 345.75C418.405 342.482 412.131 342.043 407.757 344.755ZM325.001 437.826V473.651L327.315 475.826C330.691 478.997 336.245 478.777 338.928 475.365C340.936 472.812 341.001 471.629 341.001 437.365V402H333.001H325.001V437.826Z" fill="white"/>
</svg>
