<svg width="512" height="512" viewBox="0 0 512 512" fill="none" xmlns="http://www.w3.org/2000/svg">
<path fill-rule="evenodd" clip-rule="evenodd" d="M188 1.48491C167.919 5.49191 146.08 19.2249 134.326 35.2369L130.83 39.9999L124.165 40.0129C115.336 40.0309 101.333 42.9989 91.4943 46.9389C68.9673 55.9589 49.2423 76.2539 40.9683 98.9249C35.1043 114.994 34.9173 117.994 35.2223 191.102L35.5003 257.5L38.3063 263.214C43.4363 273.661 53.9273 280.299 65.5003 280.42C68.2503 280.448 71.7253 280.135 73.2213 279.724L75.9433 278.976L76.2213 375.738L76.5003 472.5L79.2093 479.26C85.3503 494.585 96.8073 505.385 111.855 510.036C118.006 511.937 121.694 512 226.5 512C331.696 512 334.973 511.943 341.217 510.015C356.326 505.348 368.636 493.46 374.26 478.106C376.004 473.343 376.38 469.454 376.759 452.25L377.205 432H405.997C431.79 432 435.451 431.795 441.145 430.036C456.714 425.224 469.2 412.904 474.624 397C476.407 391.773 476.5 386.782 476.5 296.5C476.5 206.218 476.407 201.227 474.624 196C469.2 180.096 456.714 167.776 441.145 162.964C435.449 161.204 431.79 161 405.895 161H377V146.2V131.399L382.557 125.662C389.257 118.745 394.342 108.666 396.102 98.8149C400.463 74.4169 384.704 49.8319 360.068 42.5949C353.695 40.7229 339.373 40.5889 333.543 42.3469L329.587 43.5399L322.543 36.4009C311.883 25.5959 301.126 20.9999 286.5 20.9999C282.025 20.9999 276.04 21.6899 273.201 22.5329L268.039 24.0659L260.769 18.5199C244.533 6.13291 226.141 -0.068086 206.122 0.093914C199.73 0.145914 191.575 0.771914 188 1.48491ZM197.161 21.0379C176.545 23.8349 159.637 34.7739 146.985 53.4999C145.127 56.2499 142.908 59.0479 142.053 59.7179C141.047 60.5069 136.52 60.9479 129.197 60.9679C115.299 61.0069 106.06 62.9459 95.5003 68.0389C77.7743 76.5869 65.2513 90.9819 58.6543 110.393C56.6493 116.294 56.5683 118.775 56.2503 183.946C56.0043 234.178 56.2213 252.12 57.1013 254.243C58.4193 257.427 62.5913 260 66.4353 260C67.8283 260 70.4383 258.687 72.2343 257.083L75.5003 254.166L76.0003 210L76.5003 165.834L79.5883 163.076C82.1133 160.821 83.9793 160.196 89.8133 159.654C107.496 158.011 120.087 149.347 131.109 131.243C135.622 123.828 140.732 120.995 149.566 121.01C156.675 121.021 162.987 123.826 170.656 130.38C178.094 136.736 185.486 139.353 196 139.353C206.328 139.353 213.55 136.859 221.12 130.677C232.703 121.22 231.948 121.499 245.929 121.513C260.89 121.529 269.325 123.698 278.658 129.931C285.464 134.475 289.718 139.962 293.057 148.5C295.279 154.183 295.432 156.089 295.951 184.599C296.541 216.954 296.5 216.722 302.014 219.006C305.691 220.529 309.451 219.639 312.586 216.505L315 214.091V168.996C315 130.73 315.229 123.458 316.51 120.98C319.405 115.383 324.302 114.473 333.338 117.853C355.255 126.054 377.275 111.073 375.749 88.9999C374.643 73.0009 362.742 61.8269 346.698 61.7239C340.412 61.6829 338.508 62.1209 333.162 64.8379C322.666 70.1719 318.657 68.9449 313.305 58.7609C305.271 43.4729 289.353 37.5709 274.495 44.3739C265.696 48.4019 263.198 48.0029 255.788 41.3819C247.71 34.1649 242.464 30.5759 234.73 26.9759C223.071 21.5499 209.361 19.3829 197.161 21.0379ZM335.793 179C335.506 216.755 335.455 217.597 333.199 222.5C330.467 228.434 326.084 233.235 320.25 236.68L316 239.19V321.145C316 412.226 316.336 407.708 309.348 410.628C304.625 412.601 299.569 410.981 296.926 406.647C295.076 403.612 295.007 400.579 295.004 321.345L295 239.19L290.75 236.68C284.916 233.235 280.533 228.434 277.801 222.5C275.601 217.72 275.478 216.161 275 187C274.565 160.459 274.273 156.085 272.751 153.302C269.137 146.693 260.751 142.84 247.307 141.609L241.113 141.043L235.807 145.573C228.696 151.643 223.802 154.398 214.39 157.629C203.174 161.48 188.972 161.47 177.61 157.605C168.463 154.493 162.937 151.441 156.848 146.139C150.104 140.266 149.553 140.289 145.939 146.607C137.117 162.027 120.418 174.13 101.25 178.998L97.0003 180.077V316.039V452H173.577H250.154L253.077 454.923C257.193 459.039 257.193 464.961 253.077 469.077L250.154 472H174.577C133.01 472 99.0003 472.362 99.0003 472.804C99.0003 475.087 105.377 483.163 109.324 485.879C118.464 492.168 115.257 492 226.5 492C337.435 492 334.566 492.147 343.468 486.022C347.306 483.381 354 474.996 354 472.829C354 472.373 346.765 472 337.923 472H321.846L318.923 469.077C314.807 464.961 314.807 459.039 318.923 454.923L321.846 452H338.923H356V296.25V140.5H346.043H336.086L335.793 179ZM377 190.918V201L403.75 201.022C432.67 201.046 433.032 201.11 435.883 206.684C436.681 208.244 437 233.928 437 296.5C437 359.072 436.681 384.756 435.883 386.316C433.032 391.89 432.67 391.954 403.75 391.978L377 392V402.082V412.165L404.75 411.742C424.037 411.448 433.62 410.921 436.174 410.015C442.167 407.888 449.055 401.939 452.401 396L455.5 390.5V296.5V202.5L452.401 197C449.055 191.061 442.167 185.112 436.174 182.985C433.62 182.079 424.037 181.552 404.75 181.258L377 180.835V190.918ZM138.766 202.918L135.5 205.836L135.236 304.44C134.941 414.132 134.55 407.661 141.652 410.628C146.372 412.6 151.428 410.981 154.082 406.647C155.955 403.588 156.002 400.737 155.754 304.668L155.5 205.836L152.234 202.918C147.821 198.975 143.179 198.975 138.766 202.918ZM218.766 202.918L215.5 205.836L215.236 304.44C214.941 414.132 214.55 407.661 221.652 410.628C226.372 412.6 231.428 410.981 234.082 406.647C235.955 403.588 236.002 400.737 235.754 304.668L235.5 205.836L232.234 202.918C227.821 198.975 223.179 198.975 218.766 202.918ZM377 296.5V372H396.5H416V296.5V221H396.5H377V296.5ZM281.357 451.94C275.437 454.471 274.161 462.91 278.898 468.211C281.296 470.895 282.52 471.455 286 471.455C289.48 471.455 290.704 470.895 293.102 468.211C298.938 461.68 295.814 452.336 287.498 451.45C285.299 451.216 282.536 451.437 281.357 451.94Z" fill="#D9D9D9"/>
</svg>
