<svg width="512" height="512" viewBox="0 0 512 512" fill="none" xmlns="http://www.w3.org/2000/svg">
<g clip-path="url(#clip0_482_167)">
<path fill-rule="evenodd" clip-rule="evenodd" d="M336.261 2.00692C317.68 6.87592 300.798 20.0929 292.367 36.3709L289.844 41.2419L286.255 35.8709C278.462 24.2069 261.854 10.9999 254.98 10.9999C248.756 10.9999 234.442 21.6849 226.33 32.3869C216.65 45.1569 211.037 61.0749 210.7 76.7159C210.549 83.7049 210.266 85.0229 209.009 84.6009C196.02 80.2449 193.048 79.7149 181 79.6089C166.956 79.4859 158.229 81.0389 154.388 84.3419C151.337 86.9669 149.278 94.7289 148.379 107C147.005 125.758 154.214 146.142 167.35 160.645L172.201 166H142.058C119.135 166 110.173 166.36 104.64 167.503C88.874 170.759 75.018 178.14 62.855 189.76C51.103 200.989 43.518 213.74 38.635 230.478C36.641 237.313 36.578 240.166 36.261 337.75L35.936 438H20.891H5.846L2.923 440.923C0.3 443.546 0 444.504 0 450.263C0 477.414 21.663 504.019 49 510.443C54.716 511.786 79.682 511.97 256 511.97C432.318 511.97 457.284 511.786 463 510.443C484.374 505.42 504.437 486.319 509.494 466.177C510.416 462.505 511.582 458.719 512.085 457.764C513.047 455.937 513.395 442.272 512.455 443.212C512.155 443.511 510.615 442.461 509.032 440.878C506.167 438.013 506.096 438 493.609 438H481.064L480.739 337.75C480.422 240.166 480.359 237.313 478.365 230.478C473.482 213.74 465.897 200.989 454.145 189.76C441.982 178.14 428.126 170.759 412.36 167.503C406.771 166.348 397.657 166 373.049 166H341.013L344.659 161.25C368.856 129.725 357.83 83.3149 322 65.8759C318.425 64.1359 313.475 62.1749 311 61.5179C306.779 60.3979 306.51 60.1229 306.657 57.0719C306.916 51.7289 312.763 41.2359 318.886 35.1269C327.829 26.2049 337.069 22.1289 352.226 20.4209C360.857 19.4479 365.64 13.4449 363.103 6.76992C361.105 1.51492 358.265 -0.00508295 350.561 0.054917C346.678 0.084917 340.242 0.963917 336.261 2.00692ZM246.733 40.8999C239.225 48.8589 234.629 57.4539 232.511 67.4999C230.614 76.4959 230.628 81.4719 232.578 90.0419C234.245 97.3709 235.461 99.2719 236.464 96.1139C237.551 92.6889 244.62 82.6139 249.353 77.7459C254.648 72.2989 262.059 67.3899 270 64.0679C273.025 62.8029 275.652 61.6299 275.838 61.4619C276.025 61.2939 274.749 58.1639 273.003 54.5069C269.517 47.2019 257.926 33.9999 255 33.9999C254.033 33.9999 250.313 37.1049 246.733 40.8999ZM283.251 81.5449C272.641 84.4019 264.151 90.5979 258.288 99.7629C247.45 116.707 249.835 138.868 263.999 152.81C288.742 177.166 329.836 164.064 336.098 129.822C341.562 99.9419 312.733 73.6059 283.251 81.5449ZM170.035 101.934C169.466 102.998 169 106.954 169 110.724C169 135.276 185.247 156.493 209.433 163.524C215.191 165.198 232.444 165.889 233.831 164.502C234.194 164.14 234.451 159.491 234.403 154.171C234.258 138.093 228.657 125.453 216.822 114.496C206.352 104.802 193.869 99.9999 179.141 99.9999C172.185 99.9999 170.927 100.267 170.035 101.934ZM114.388 187.035C98.923 189.094 86.929 195.012 76 205.976L68.5 213.5L110.116 213.761L151.731 214.022L154.325 216.426C159.069 220.822 159.064 227.183 154.314 231.585L151.708 234H105.492H59.276L58.138 239.667C57.512 242.784 57 253.084 57 262.557V279.781L66.184 286.072C84.08 298.329 88.217 298.163 108.545 284.372C115.476 279.669 123.506 274.742 126.389 273.422C135.859 269.086 149.805 268.729 159.5 272.573C161.7 273.445 169.575 278.265 177 283.282C200.22 298.974 201.831 298.956 226.151 282.73C242.292 271.96 247.549 269.918 259.15 269.915C269.994 269.911 275.712 272.268 292.999 283.868C315.218 298.778 317.175 298.732 341.153 282.721C356.696 272.343 362.662 269.916 372.75 269.868C385.205 269.809 391.279 272.236 408 283.954C420.46 292.687 425.126 294.964 430.5 294.934C436.4 294.902 440.597 293.071 450.816 286.072L460 279.781L459.983 262.141C459.962 241.192 458.694 233.995 452.999 222.498C444.801 205.949 430.33 194.054 411.5 188.387C405.849 186.686 397.21 186.571 263 186.401C184.625 186.302 117.75 186.587 114.388 187.035ZM178.923 216.923C176.631 219.216 176 220.742 176 224C176 227.258 176.631 228.784 178.923 231.077C185.365 237.518 196 233.111 196 224C196 220.742 195.369 219.216 193.077 216.923C190.784 214.631 189.258 214 186 214C182.742 214 181.216 214.631 178.923 216.923ZM138.717 290.979C136.408 291.416 129.309 295.483 120.508 301.409C102.93 313.246 97.607 315.393 86 315.331C76.304 315.28 70.278 313.519 62.266 308.393L57 305.025V371.512V438H136.864H216.727L219.3 440.573C223.909 445.181 223.736 451.373 218.873 455.904L216.623 458H119.311C42.129 458 22 458.259 22.001 459.25C22.003 462.159 28.058 472.891 32.431 477.734C38.441 484.39 48.689 489.596 58.5 490.976C68.022 492.315 443.978 492.315 453.5 490.976C463.311 489.596 473.559 484.39 479.569 477.734C483.942 472.891 489.997 462.159 489.999 459.25C490 458.259 469.871 458 392.689 458H295.377L293.127 455.904C288.264 451.373 288.091 445.181 292.7 440.573L295.273 438H377.636H460V371.512V305.025L454.734 308.393C445.003 314.619 434.446 316.882 423.906 315.002C415.847 313.565 409.161 310.231 396.5 301.333C382.516 291.507 380.54 290.583 373.5 290.587C366.455 290.591 364.812 291.392 347.306 303.357C332.872 313.222 326.922 315.466 315.5 315.352C304.48 315.243 299.813 313.372 283.5 302.528C265.688 290.688 265.82 290.75 258.537 290.75C251.283 290.75 249.492 291.611 232.306 303.357C217.765 313.296 211.811 315.546 200.5 315.378C189.453 315.214 184.73 313.317 168.5 302.528C160.8 297.41 153.6 292.784 152.5 292.248C149.475 290.775 142.956 290.175 138.717 290.979ZM248.923 440.923C242.482 447.365 246.889 458 256 458C261.847 458 266 453.847 266 448C266 444.742 265.369 443.216 263.077 440.923C260.784 438.631 259.258 438 256 438C252.742 438 251.216 438.631 248.923 440.923ZM0.336 451C0.336 455.125 0.513 456.813 0.728 454.75C0.944 452.688 0.944 449.313 0.728 447.25C0.513 445.188 0.336 446.875 0.336 451Z" fill="#D9D9D9"/>
</g>
<defs>
<clipPath id="clip0_482_167">
<rect width="512" height="512" fill="white"/>
</clipPath>
</defs>
</svg>
