<svg width="460" height="512" viewBox="0 0 460 512" fill="none" xmlns="http://www.w3.org/2000/svg">
<path fill-rule="evenodd" clip-rule="evenodd" d="M362.916 2.75C360.718 4.825 353.924 19.863 335.248 64C321.633 96.175 310.04 123.513 309.486 124.75L308.478 127H264.267H220.057L219.372 121.75C211.853 64.053 157.39 20.882 99.7374 26.918C40.3804 33.133 -2.30456 82.219 0.09644 141.5C3.03244 213.961 73.0974 263.074 143.553 242.057L149.808 240.192L194.303 292.083L238.799 343.975V400.333V456.691L211.377 474.948C196.295 484.989 182.918 494.309 181.65 495.659C178.039 499.503 178.45 505.406 182.588 509.102L185.831 512H249.892H313.953L316.876 509.077C320.173 505.78 320.871 499.975 318.396 496.441C317.624 495.339 304.135 485.902 288.421 475.469L259.849 456.5L259.881 401L259.912 345.5L343.94 247.5C390.156 193.6 429.506 147.523 431.384 145.106C435.923 139.267 436.089 134.136 431.876 129.923L428.953 127H380.376C353.659 127 331.799 126.638 331.799 126.197C331.799 125.755 341.831 101.792 354.093 72.947L376.387 20.5L415.566 20C454.691 19.501 454.749 19.497 457.022 17.222C458.791 15.453 459.299 13.816 459.299 9.886C459.299 5.583 458.88 4.466 456.493 2.413L453.687 0H409.759H365.831L362.916 2.75ZM87.7994 49.947C78.0864 52.587 69.8184 56.244 61.7304 61.476L54.4814 66.165L76.8824 88.583C89.2024 100.912 99.3994 111 99.5414 111C99.6834 111 99.7994 96.825 99.7994 79.5V48L97.0494 48.09C95.5364 48.14 91.3744 48.976 87.7994 49.947ZM120.799 79.742V111.483L143.299 89C155.674 76.634 165.799 66.453 165.799 66.376C165.799 66.298 162.987 64.404 159.549 62.166C151.211 56.737 141.13 52.259 131.982 49.919C119.504 46.728 120.799 43.273 120.799 79.742ZM166.731 94.75C159.315 102.313 149.24 112.662 144.342 117.75L135.437 127H167.118H198.799V124.688C198.799 120.74 194.851 107.071 191.705 100.126C189.294 94.806 181.126 81 180.389 81C180.293 81 174.147 87.188 166.731 94.75ZM35.9804 86.25C29.8224 95.229 23.7984 109.827 22.2604 119.5C21.9104 121.7 21.4084 124.287 21.1444 125.25C20.6944 126.89 22.6874 127 52.9734 127H85.2824L62.7994 104.5C50.4334 92.125 39.9964 82 39.6054 82C39.2154 82 37.5834 83.912 35.9804 86.25ZM21.4174 150.25C22.8034 158.182 26.1484 168.878 29.1354 174.929C32.5354 181.817 38.8934 192 39.7934 192C40.0834 192 48.5904 183.72 58.6994 173.6L77.0794 155.2L73.6894 151.118L70.2994 147.036L45.5744 147.018L20.8494 147L21.4174 150.25ZM99.4754 149.25C100.588 150.488 133.582 189.075 172.794 235C212.007 280.925 245.489 319.957 247.2 321.739L250.31 324.978L307.304 258.404C338.651 221.789 365.344 190.519 366.621 188.915L368.944 186H337.519H306.094L289.304 225.474C280.069 247.185 271.76 265.63 270.84 266.463C264.636 272.077 253.799 267.314 253.799 258.973C253.799 257.218 260.087 241.095 268.299 221.795C276.274 203.051 282.799 187.329 282.799 186.857C282.799 186.386 265.481 186 244.315 186H205.831L202.588 183.102C198.211 179.192 198.003 173.342 202.094 169.25L204.843 166.5L248.517 166L292.191 165.5L295.995 156.556C298.087 151.637 299.799 147.475 299.799 147.306C299.799 147.138 254.271 147 198.625 147H97.4504L99.4754 149.25ZM321.221 150.533C320.409 152.476 318.632 156.582 317.272 159.658C315.912 162.733 314.799 165.418 314.799 165.624C314.799 165.831 330.909 166 350.599 166H386.4L394.099 157.041C398.334 152.114 401.799 147.839 401.799 147.541C401.799 147.244 384.001 147 362.248 147H322.697L321.221 150.533ZM162.588 168.898C159.904 171.296 159.344 172.52 159.344 176C159.344 184.575 169.91 189.249 176.493 183.587C178.895 181.521 179.299 180.428 179.299 176C179.299 171.572 178.895 170.479 176.493 168.413C172.434 164.922 166.818 165.117 162.588 168.898ZM72.3164 188.937L54.3344 206.986L56.7884 208.743C68.3394 217.012 87.6294 225 96.0464 225H98.7994V202.723V180.445L94.5494 175.667L90.2994 170.889L72.3164 188.937ZM119.844 215.817C119.803 225.172 119.962 226.09 121.549 225.655C122.512 225.391 125.099 224.886 127.299 224.534C135.192 223.27 135.189 223.274 131.894 219.175C130.27 217.154 126.904 213.25 124.415 210.5L119.889 205.5L119.844 215.817ZM235.806 483.563L223.313 492H249.056C263.215 492 274.799 491.838 274.799 491.64C274.799 490.955 250.218 475 249.26 475.063C248.732 475.098 242.677 478.923 235.806 483.563Z" fill="#D9D9D9"/>
</svg>
