<svg width="512" height="512" viewBox="0 0 512 512" fill="none" xmlns="http://www.w3.org/2000/svg">
<g clip-path="url(#clip0_495_79)">
<path fill-rule="evenodd" clip-rule="evenodd" d="M103.276 20.2769C83.8085 39.7449 82.9995 40.7109 82.9995 44.4709C82.9995 48.2289 83.8235 49.2159 103.177 68.6539C116.072 81.6049 124.31 89.1289 126.003 89.5009C127.46 89.8209 129.93 89.5969 131.493 89.0019C134.567 87.8329 165.388 57.9849 170.113 51.5999C172.028 49.0119 172.999 46.4979 172.999 44.1269C172.999 40.8139 171.524 39.0789 152.722 20.2769L132.445 -6.24657e-05H127.999H123.553L103.276 20.2769ZM248.922 2.92294L245.999 5.84594V46.9229V87.9999H234.695C224.527 87.9999 222.868 88.2609 218.175 90.5999C212.157 93.5979 207.597 99.4429 206.054 106.135C205.501 108.536 205.037 116.864 205.023 124.642L204.999 138.783L202.249 139.447C190.072 142.385 167.188 152.9 153.088 162.037C109.559 190.242 80.3915 233.021 69.2485 285C66.7555 296.63 66.5695 299.205 66.5695 322C66.5695 344.81 66.7545 347.37 69.2605 359.105C81.8745 418.175 118.379 465.706 171.617 492.378C198.275 505.733 225.133 511.946 256.371 511.982C304.609 512.037 346.572 495.913 383.877 462.986C388.388 459.005 392.735 454.477 393.539 452.924C396.607 446.989 394.555 440.966 388.618 438.485C383.592 436.385 380.282 437.737 372.599 445.03C360.251 456.75 347.494 465.593 331.499 473.52C323.249 477.608 315.149 481.252 313.499 481.618L310.499 482.282L312.642 479.891C319.843 471.855 331.293 450.609 337.913 433L341.861 422.5L357.02 422C372.127 421.502 372.187 421.49 374.589 418.694C378.127 414.576 377.91 408.757 374.076 404.923C371.174 402.021 371.069 402 359.283 402H347.414L349.655 390.862C352.6 376.233 354.891 358.301 355.674 343.75L356.306 332H390.791H425.275L424.614 339.25C424.251 343.238 423.035 350.775 421.913 356C418.441 372.165 418.419 373.157 421.452 376.762C426.313 382.539 434.404 381.927 438.143 375.5C439.103 373.85 441.135 366.65 442.659 359.5C445.257 347.308 445.429 344.976 445.429 322C445.429 299.205 445.243 296.63 442.75 285C431.613 233.051 402.414 190.225 358.91 162.037C344.81 152.9 321.926 142.385 309.749 139.447L306.999 138.783V124.61C306.999 102.981 304.186 95.7629 293.721 90.5489C289.146 88.2689 287.413 87.9999 277.303 87.9999H265.999V46.9229V5.84594L263.076 2.92294C258.96 -1.19306 253.038 -1.19306 248.922 2.92294ZM117.73 34.7679L107.998 44.5369L117.999 54.4999L127.999 64.4619L137.999 54.4999L148 44.5369L138.268 34.7679C132.916 29.3959 128.295 24.9999 127.999 24.9999C127.703 24.9999 123.082 29.3959 117.73 34.7679ZM418.922 27.9229C416.08 30.7649 415.999 31.1239 415.999 40.8759C415.999 46.3919 416.487 51.9779 417.084 53.2879C418.355 56.0779 422.893 58.9999 425.953 58.9999C429.005 58.9999 433.745 56.3429 435.053 53.8979C436.747 50.7329 437.385 38.0679 436.091 33.3039C433.819 24.9409 424.747 22.0979 418.922 27.9229ZM378.922 67.9229C373.626 73.2189 375.48 81.6319 382.598 84.6059C386.54 86.2529 396.927 86.4249 402.301 84.9329C410.183 82.7439 412.218 73.3389 406.018 67.7499C403.096 65.1159 402.521 64.9999 392.406 64.9999C382.067 64.9999 381.784 65.0609 378.922 67.9229ZM446.706 67.0159C442.807 70.0829 441.486 75.1169 443.479 79.3169C445.888 84.3939 448.861 85.4999 460.091 85.4999C469.547 85.4999 469.971 85.4029 472.934 82.5629C475.442 80.1589 475.999 78.8289 475.999 75.2359C475.999 71.7169 475.419 70.2659 473.076 67.9229C470.218 65.0659 469.919 64.9999 459.711 64.9999C450.756 64.9999 448.904 65.2869 446.706 67.0159ZM44.7745 82.5589C40.6425 84.8009 39.9995 86.9449 39.9995 98.4799C39.9995 108.364 40.1645 109.256 42.4135 111.505C45.2565 114.348 48.9865 115.471 52.5855 114.568C54.0075 114.211 56.2575 112.832 57.5855 111.505C59.8345 109.256 59.9995 108.364 59.9995 98.4799C59.9995 86.8199 59.3545 84.7519 55.0195 82.5099C51.3875 80.6319 48.2985 80.6469 44.7745 82.5589ZM422.377 92.4609C416.992 94.7629 415.999 97.2599 415.999 108.5C415.999 119.747 417.003 122.268 422.38 124.515C426.584 126.271 430.239 125.403 433.657 121.835C436.408 118.964 436.499 118.535 436.499 108.454C436.499 98.1929 436.455 97.9959 433.499 95.1379C429.777 91.5379 426.424 90.7319 422.377 92.4609ZM227.199 109.2C226.414 109.985 225.999 114.133 225.999 121.2V132H255.999H285.999V121.2C285.999 114.133 285.584 109.985 284.799 109.2C283.088 107.489 228.91 107.489 227.199 109.2ZM4.77449 122.559C-2.63851 126.582 -1.47751 137.967 6.66049 141.061C10.4875 142.516 23.6185 142.186 27.5675 140.536C30.0035 139.518 31.5395 137.951 32.6085 135.394C34.5035 130.857 33.7795 127.626 30.0255 123.872C27.2455 121.092 26.8385 121.001 17.3265 121.04C10.6155 121.067 6.63549 121.549 4.77449 122.559ZM69.9735 123.872C66.2195 127.626 65.4955 130.857 67.3905 135.394C69.6055 140.695 73.9915 142.277 85.2715 141.842C93.8695 141.511 94.2615 141.392 97.0825 138.234C99.1445 135.926 99.9995 133.928 99.9995 131.418C99.9995 123.363 96.0245 121 82.4725 121C73.2045 121 72.7385 121.107 69.9735 123.872ZM42.9225 150.923C40.0495 153.796 39.9995 154.033 39.9995 164.735C39.9995 174.407 40.2335 175.874 42.0955 177.873C46.7975 182.919 53.2145 182.91 57.4725 177.85C59.8245 175.055 59.9995 174.118 59.9995 164.346C59.9995 154.074 59.9365 153.783 57.0765 150.923C54.7835 148.631 53.2575 148 49.9995 148C46.7415 148 45.2155 148.631 42.9225 150.923ZM238.347 156.984C222.313 164.996 205.566 187.22 195.12 214.349L192.174 222H219.086H245.999V188C245.999 169.3 245.621 154 245.159 154C244.697 154 241.631 155.343 238.347 156.984ZM265.999 187.933V222H292.912H319.824L316.878 214.349C312.384 202.679 304.314 187.597 298.029 179.125C289.184 167.201 277.092 157.221 268.249 154.546L265.999 153.865V187.933ZM190.999 165.393C169.266 174.841 154.328 184.795 137.676 200.923C130.342 208.027 119.999 220.013 119.999 221.409C119.999 221.753 131.279 221.914 145.066 221.767L170.133 221.5L173.914 211.477C180.84 193.121 192.216 171.941 199.281 164.25C202.141 161.136 200.165 161.409 190.999 165.393ZM312.717 164.25C319.81 171.972 331.073 192.875 337.906 211L341.865 221.5L367.539 221.767L393.214 222.034L388.933 216.767C370.088 193.582 345.847 175.488 319.039 164.594C311.216 161.415 310.055 161.352 312.717 164.25ZM102.131 250.949C94.5915 267.179 88.9725 287.683 87.3845 304.766L86.7125 312H121.203H155.694L156.373 299.305C157.126 285.22 160.078 262.901 162.862 250.25L164.677 242H135.483H106.289L102.131 250.949ZM184.155 250.75C180.179 268.047 176.999 292.427 176.999 305.606V312H211.499H245.999V277V242H216.082H186.166L184.155 250.75ZM265.999 277V312H300.499H334.999V305.606C334.999 292.602 331.069 263.252 327.318 248.25L325.756 242H295.877H265.999V277ZM349.655 253.138C352.595 267.744 354.754 284.655 355.608 299.778L356.299 312H390.793H425.286L424.614 304.766C423.026 287.683 417.407 267.179 409.867 250.949L405.709 242H376.561H347.414L349.655 253.138ZM87.3845 339.234C88.9725 356.317 94.5915 376.821 102.131 393.051L106.289 402H135.483H164.677L162.862 393.75C160.078 381.099 157.126 358.78 156.373 344.695L155.694 332H121.203H86.7125L87.3845 339.234ZM176.999 338.394C176.999 351.573 180.179 375.953 184.155 393.25L186.166 402H216.082H245.999V367V332H211.499H176.999V338.394ZM265.999 367V402H295.877H325.756L327.318 395.75C331.069 380.748 334.999 351.398 334.999 338.394V332H300.499H265.999V367ZM404.922 404.923C402.63 407.216 401.999 408.742 401.999 412C401.999 415.258 402.63 416.784 404.922 419.077C411.364 425.518 421.999 421.111 421.999 412C421.999 408.742 421.368 407.216 419.076 404.923C416.783 402.631 415.257 402 411.999 402C408.741 402 407.215 402.631 404.922 404.923ZM40.4995 423.43C38.8495 424.173 29.0625 433.295 18.7495 443.7L-0.000512913 462.62V467.507V472.395L19.8015 492.198L39.6045 512H44.4935H49.3825L68.6815 492.793C89.5195 472.055 91.1755 469.654 88.6505 463.836C86.8345 459.652 51.4975 424.468 47.6845 423.048C44.2305 421.762 44.1975 421.764 40.4995 423.43ZM119.999 422.591C119.999 425.208 139.769 446.02 150.499 454.697C161.657 463.721 178.544 473.548 192.959 479.406C200.782 482.585 201.943 482.648 199.281 479.75C192.216 472.059 180.84 450.879 173.914 432.523L170.133 422.5L145.066 422.233C131.279 422.086 119.999 422.247 119.999 422.591ZM195.12 429.651C199.614 441.321 207.684 456.403 213.969 464.875C222.814 476.799 234.906 486.779 243.749 489.454L245.999 490.135V456.067V422H219.086H192.174L195.12 429.651ZM265.999 456.067V490.135L268.249 489.454C277.092 486.779 289.184 476.799 298.029 464.875C304.314 456.403 312.384 441.321 316.878 429.651L319.824 422H292.912H265.999V456.067ZM463.499 423.439C459.441 425.279 424.372 460.759 423.017 464.394C421.015 469.768 423.068 472.641 443.317 492.793L462.616 512H467.505H472.394L492.197 492.198L512 472.395V467.507V462.62L493.249 443.699C476.971 427.273 470.503 421.878 467.281 422.039C466.851 422.061 465.149 422.691 463.499 423.439ZM34.7305 457.768L24.9985 467.537L34.7675 477.269L44.5365 487.001L54.4985 477.001L64.4605 467.001L54.9995 457.5C49.7965 452.275 45.2965 448 45.0005 448C44.7045 448 40.0825 452.396 34.7305 457.768ZM456.999 457.5L447.538 467.001L457.5 477.001L467.462 487.001L477.231 477.269L487 467.537L477.268 457.768C471.916 452.396 467.294 448 466.998 448C466.702 448 462.202 452.275 456.999 457.5Z" fill="white"/>
</g>
<defs>
<clipPath id="clip0_495_79">
<rect width="512" height="512" fill="white"/>
</clipPath>
</defs>
</svg>
