<svg width="512" height="512" viewBox="0 0 512 512" fill="none" xmlns="http://www.w3.org/2000/svg">
<g clip-path="url(#clip0_498_53)">
<path fill-rule="evenodd" clip-rule="evenodd" d="M226.5 63.0972C164.489 68.4972 105.096 90.0352 54.6152 125.431C33.3562 140.337 7.98619 162.766 3.22619 170.862C0.803191 174.984 0.500191 176.501 0.500191 184.5C0.500191 192.567 0.792192 193.996 3.31319 198.286C6.58819 203.857 13.6812 209.368 19.7742 211.076C25.4022 212.653 34.6142 211.748 39.7862 209.109C42.0632 207.948 48.2732 202.912 53.5852 197.92C101.548 152.847 161.81 125.565 227.856 119.025C242.736 117.552 272.355 117.78 287.615 119.485C352.917 126.781 411.238 153.609 458.485 198.088C469.626 208.577 475.836 211.976 483.884 211.99C497.365 212.015 504.782 206.451 512.181 190.764C513.378 188.225 513.222 176.745 512 177.5C511.45 177.84 511 177.28 511 176.255C511 172.711 505.298 165.427 495.241 156.124C439.001 104.102 371.515 73.1162 294.5 63.9562C282.027 62.4722 239.801 61.9392 226.5 63.0972ZM231 169.695C177.847 175.388 125.519 199.26 89.2192 234.375C78.4302 244.812 75.9342 248.957 75.2412 257.583C74.3102 269.188 79.9502 279.304 90.1992 284.412C94.3322 286.471 96.8332 286.996 102.446 286.978C111.704 286.949 115.755 285.024 125.606 275.974C141.572 261.305 161.138 248.259 178.818 240.492C230.44 217.816 288.35 218.869 338.595 243.395C355.046 251.426 369.559 261.213 383.618 273.757C396.134 284.924 400.568 287.212 409.734 287.235C423.993 287.27 435.411 276.583 436.737 261.961C437.823 249.988 432.372 241.794 412.011 224.793C376.894 195.471 333.336 176.612 286.699 170.537C275.87 169.127 241.2 168.602 231 169.695ZM0.328191 184.5C0.333191 188.35 0.513192 189.802 0.730191 187.728C0.946192 185.653 0.943191 182.503 0.722191 180.728C0.501191 178.952 0.324191 180.65 0.328191 184.5ZM244 273.666C219.913 276.043 198.11 283.729 178.59 296.724C164.238 306.279 153.648 316.665 150.935 323.85C144.069 342.03 157.09 361.125 176.352 361.125C184.869 361.125 190.163 358.772 198.793 351.153C209.856 341.387 221.241 335.16 235 331.351C245.185 328.531 267.945 328.777 278.5 331.822C289.811 335.084 302.096 341.89 312.366 350.583C323.042 359.619 326.426 361.195 335.272 361.251C355.944 361.382 369.054 339.69 359.53 321.113C353.839 310.013 330.609 292.719 309.597 283.939C289.962 275.735 264.089 271.683 244 273.666ZM247 377.357C236.628 380.467 230.52 384.713 225.58 392.248C215.657 407.381 217.447 426.542 229.952 439.048C242.483 451.578 261.93 453.37 276.696 443.355C282.794 439.219 286.126 435.117 289.79 427.235C292.015 422.449 292.458 420.093 292.467 413C292.477 405.564 292.092 403.687 289.395 398C283.425 385.418 271.767 377.328 258.344 376.454C254.191 376.183 249.731 376.538 247 377.357Z" fill="#D9D9D9"/>
</g>
<defs>
<clipPath id="clip0_498_53">
<rect width="512" height="512" fill="white"/>
</clipPath>
</defs>
</svg>
