<svg width="491" height="491" viewBox="0 0 491 491" fill="none" xmlns="http://www.w3.org/2000/svg">
<g clip-path="url(#clip0_470_121)">
<path d="M398.938 214.812H368.25V245.5H398.938C411.142 245.513 422.842 250.367 431.472 258.997C440.101 267.627 444.955 279.327 444.969 291.531V352.906H475.656V291.531C475.633 271.191 467.542 251.691 453.16 237.309C438.777 222.926 419.277 214.836 398.938 214.812Z" fill="#D9D9D9"/>
<path d="M368.25 61.375C377.354 61.375 386.254 64.0747 393.824 69.1327C401.393 74.1906 407.293 81.3797 410.777 89.7909C414.261 98.202 415.173 107.457 413.397 116.387C411.621 125.316 407.237 133.518 400.799 139.955C394.361 146.393 386.159 150.777 377.23 152.553C368.301 154.329 359.046 153.418 350.635 149.934C342.224 146.45 335.034 140.55 329.976 132.98C324.918 125.41 322.219 116.51 322.219 107.406C322.219 95.198 327.068 83.4898 335.701 74.8572C344.334 66.2247 356.042 61.375 368.25 61.375ZM368.25 30.6875C353.077 30.6875 338.244 35.187 325.627 43.6169C313.011 52.0469 303.178 64.0287 297.371 78.0473C291.564 92.0658 290.045 107.491 293.005 122.373C295.966 137.255 303.272 150.925 314.002 161.655C324.731 172.384 338.401 179.691 353.283 182.651C368.165 185.611 383.591 184.092 397.609 178.285C411.628 172.478 423.609 162.645 432.039 150.029C440.469 137.413 444.969 122.58 444.969 107.406C444.969 87.0592 436.886 67.5455 422.498 53.1579C408.111 38.7703 388.597 30.6875 368.25 30.6875Z" fill="#D9D9D9"/>
<path d="M352.906 460.312H322.219V429.625C322.205 417.421 317.351 405.72 308.722 397.091C300.092 388.461 288.392 383.607 276.188 383.594H214.812C202.608 383.607 190.908 388.461 182.278 397.091C173.649 405.72 168.795 417.421 168.781 429.625V460.312H138.094V429.625C138.118 409.285 146.208 389.785 160.591 375.403C174.973 361.021 194.473 352.93 214.812 352.906H276.188C296.527 352.93 316.027 361.021 330.409 375.403C344.792 389.785 352.882 409.285 352.906 429.625V460.312Z" fill="#D9D9D9"/>
<path d="M245.5 199.469C254.604 199.469 263.504 202.168 271.074 207.226C278.643 212.284 284.543 219.473 288.027 227.885C291.511 236.296 292.423 245.551 290.647 254.48C288.871 263.409 284.487 271.611 278.049 278.049C271.611 284.487 263.409 288.871 254.48 290.647C245.551 292.423 236.296 291.511 227.885 288.027C219.474 284.543 212.284 278.643 207.226 271.074C202.168 263.504 199.469 254.604 199.469 245.5C199.469 233.292 204.318 221.584 212.951 212.951C221.584 204.318 233.292 199.469 245.5 199.469ZM245.5 168.781C230.327 168.781 215.494 173.281 202.877 181.711C190.261 190.141 180.428 202.122 174.621 216.141C168.814 230.16 167.295 245.585 170.255 260.467C173.216 275.349 180.522 289.019 191.252 299.748C201.981 310.478 215.651 317.784 230.533 320.745C245.415 323.705 260.841 322.186 274.859 316.379C288.878 310.572 300.859 300.739 309.289 288.123C317.719 275.506 322.219 260.674 322.219 245.5C322.219 225.153 314.136 205.639 299.748 191.252C285.361 176.864 265.847 168.781 245.5 168.781Z" fill="#D9D9D9"/>
<path d="M122.75 214.812H92.0625C71.7228 214.836 52.223 222.927 37.8406 237.309C23.4582 251.692 15.3677 271.192 15.3438 291.531V352.906H46.0312V291.531C46.0447 279.327 50.8987 267.627 59.5283 258.997C68.1579 250.367 79.8584 245.513 92.0625 245.5H122.75V214.812Z" fill="#D9D9D9"/>
<path d="M122.75 61.375C131.854 61.375 140.754 64.0747 148.324 69.1327C155.893 74.1906 161.793 81.3797 165.277 89.7909C168.761 98.202 169.673 107.457 167.897 116.387C166.121 125.316 161.737 133.518 155.299 139.955C148.861 146.393 140.659 150.777 131.73 152.553C122.801 154.329 113.546 153.418 105.135 149.934C96.7235 146.45 89.5344 140.55 84.4765 132.98C79.4185 125.41 76.7188 116.51 76.7188 107.406C76.7188 95.198 81.5685 83.4898 90.201 74.8572C98.8336 66.2247 110.542 61.375 122.75 61.375ZM122.75 30.6875C107.577 30.6875 92.7437 35.187 80.1274 43.6169C67.511 52.0469 57.6778 64.0287 51.8712 78.0473C46.0645 92.0658 44.5452 107.491 47.5054 122.373C50.4656 137.255 57.7724 150.925 68.5017 161.655C79.231 172.384 92.901 179.691 107.783 182.651C122.665 185.611 138.091 184.092 152.109 178.285C166.128 172.478 178.109 162.645 186.539 150.029C194.969 137.413 199.469 122.58 199.469 107.406C199.469 87.0592 191.386 67.5455 176.998 53.1579C162.611 38.7703 143.097 30.6875 122.75 30.6875Z" fill="#D9D9D9"/>
</g>
<defs>
<clipPath id="clip0_470_121">
<rect width="491" height="491" fill="white"/>
</clipPath>
</defs>
</svg>
