<svg width="512" height="512" viewBox="0 0 512 512" fill="none" xmlns="http://www.w3.org/2000/svg">
<g clip-path="url(#clip0_484_173)">
<path fill-rule="evenodd" clip-rule="evenodd" d="M90.0004 155.841V295.682L84.7504 298.49C70.1234 306.312 53.0574 322.593 44.8354 336.57C39.7774 345.168 34.5704 357.444 33.4514 363.408C32.9314 366.179 32.4584 366.858 31.6254 366.025C30.8064 365.206 30.5004 337.054 30.5004 262.7C30.5004 147.302 29.9534 155.365 38.4064 146.157C42.5694 141.622 50.7374 137.027 54.6684 137.01C59.9584 136.986 60.0004 136.858 60.0004 120.893V106H55.7104C45.2534 106 29.4004 112.559 20.0164 120.767C13.3664 126.584 5.89542 137.883 2.82942 146.757L0.500422 153.5V263.052V372.604L4.31142 380.316C8.87942 389.557 15.2694 396.266 23.8714 400.851C27.3174 402.687 30.2764 404.709 30.4474 405.345C30.6194 405.98 31.5464 410.1 32.5074 414.5C36.4124 432.366 44.9134 448.366 57.7664 462.04C71.2964 476.435 85.4584 485.592 103.062 491.329C114.923 495.195 124.287 496.321 139.703 495.735C159.084 494.999 172.385 491.105 189.5 481.158C200.591 474.711 218.739 456.531 225.107 445.489C231.12 435.06 235.371 424.472 237.646 414.25L239.482 406H256.241C271.753 406 273 406.135 273 407.812C273 410.826 276.748 424.087 279.554 431C286.138 447.22 300.062 464.926 314.864 475.899C327.539 485.295 344.663 492.51 360.266 495.027C371.132 496.78 393.35 495.803 403 493.148C423.288 487.566 435.731 480.269 451 465C466.91 449.09 475.109 434.558 479.493 414.5C480.454 410.1 481.39 405.958 481.572 405.295C481.754 404.633 483.837 403.114 486.201 401.92C497.377 396.276 505.669 387.147 509.497 376.273C510.421 373.648 511.587 370.719 512.089 369.764C513.149 367.743 513.366 154.3 512.307 155.36C511.926 155.741 511.024 153.679 510.303 150.776C506.453 135.278 494.14 119.841 479.981 112.759C471.544 108.539 462.644 106 456.29 106H452V120.893C452 136.858 452.042 136.986 457.332 137.01C461.263 137.027 469.431 141.622 473.594 146.157C482.047 155.365 481.5 147.302 481.5 262.7C481.5 337.054 481.194 365.206 480.375 366.025C479.542 366.858 479.067 366.157 478.541 363.325C477.493 357.675 472.343 345.593 467.107 336.5C460.456 324.95 442.584 307.237 430.771 300.487L422.043 295.5L422.021 155.75L422 16H256H90.0004V155.841ZM120.001 166.25L120.003 286.5L136.251 286.527C153.934 286.556 159.701 287.577 174 293.214C190.93 299.888 208.446 313.462 219.95 328.823C228.333 340.017 236.707 359.195 238.536 371.389L239.227 376H256H272.773L273.464 371.389C274.39 365.219 278.457 352.931 282.109 345.276C287.269 334.457 294.631 324.597 304.792 314.899C318.581 301.737 332.605 293.828 351.011 288.835C358.223 286.878 361.944 286.529 375.749 286.516L391.997 286.5L391.999 166.25L392 46H256H120L120.001 166.25ZM180 121V136H256H332V121V106H256H180V121ZM0.482422 263C0.482422 322.125 0.603422 346.313 0.750422 316.75C0.897422 287.188 0.897422 238.813 0.750422 209.25C0.603422 179.688 0.482422 203.875 0.482422 263ZM180 181V196H256H332V181V166H256H180V181ZM180 241V256H256H332V241V226H256H180V241ZM124.809 317.116C116.369 318.203 103.827 322.748 95.7394 327.649C87.3814 332.714 76.3054 343.954 71.1944 352.557C53.5464 382.263 58.1174 419.214 82.4524 443.548C111.72 472.817 158.28 472.817 187.548 443.548C231.446 399.651 205.463 324.766 143.644 317.015C134.672 315.89 134.303 315.892 124.809 317.116ZM366.809 317.116C358.369 318.203 345.827 322.748 337.739 327.649C329.381 332.714 318.305 343.954 313.194 352.557C295.546 382.263 300.117 419.214 324.452 443.548C353.72 472.817 400.28 472.817 429.548 443.548C473.446 399.651 447.463 324.766 385.644 317.015C376.672 315.89 376.303 315.892 366.809 317.116Z" fill="#D9D9D9"/>
</g>
<defs>
<clipPath id="clip0_484_173">
<rect width="512" height="512" fill="white"/>
</clipPath>
</defs>
</svg>
