<svg width="551" height="551" viewBox="0 0 551 551" fill="none" xmlns="http://www.w3.org/2000/svg">
<g clip-path="url(#clip0_470_145)">
<path d="M275.5 206.709C289.122 206.709 302.439 210.749 313.765 218.317C325.091 225.885 333.919 236.642 339.132 249.227C344.345 261.812 345.709 275.661 343.052 289.021C340.394 302.382 333.834 314.654 324.202 324.286C314.57 333.919 302.297 340.479 288.937 343.136C275.576 345.794 261.728 344.43 249.143 339.217C236.557 334.004 225.801 325.176 218.233 313.849C210.664 302.523 206.625 289.207 206.625 275.584C206.646 257.324 213.909 239.817 226.821 226.905C239.733 213.993 257.24 206.73 275.5 206.709ZM275.5 172.272C255.067 172.272 235.092 178.331 218.103 189.683C201.113 201.035 187.871 217.171 180.052 236.048C172.232 254.926 170.186 275.699 174.173 295.74C178.159 315.78 187.999 334.189 202.447 348.637C216.896 363.086 235.304 372.926 255.345 376.912C275.385 380.898 296.158 378.852 315.036 371.033C333.914 363.213 350.049 349.972 361.401 332.982C372.753 315.992 378.813 296.018 378.813 275.584C378.813 248.184 367.928 221.906 348.553 202.532C329.178 183.157 302.9 172.272 275.5 172.272Z" fill="#D9D9D9"/>
<path d="M117.22 92.9547L92.8711 117.303L153.237 177.669L177.586 153.321L117.22 92.9547Z" fill="#D9D9D9"/>
<path d="M120.531 258.366H34.4375V292.803H120.531V258.366Z" fill="#D9D9D9"/>
<path d="M153.237 373.5L92.8711 433.866L117.22 458.214L177.586 397.848L153.237 373.5Z" fill="#D9D9D9"/>
<path d="M292.719 430.553H258.281V516.647H292.719V430.553Z" fill="#D9D9D9"/>
<path d="M397.765 373.5L373.416 397.848L433.782 458.214L458.131 433.866L397.765 373.5Z" fill="#D9D9D9"/>
<path d="M516.562 258.366H430.469V292.803H516.562V258.366Z" fill="#D9D9D9"/>
<path d="M433.782 92.9547L373.416 153.321L397.765 177.669L458.131 117.303L433.782 92.9547Z" fill="#D9D9D9"/>
<path d="M292.719 34.522H258.281V120.616H292.719V34.522Z" fill="#D9D9D9"/>
</g>
<defs>
<clipPath id="clip0_470_145">
<rect width="551" height="551" fill="white"/>
</clipPath>
</defs>
</svg>
