<svg width="512" height="512" viewBox="0 0 512 512" fill="none" xmlns="http://www.w3.org/2000/svg">
<g clip-path="url(#clip0_495_77)">
<path fill-rule="evenodd" clip-rule="evenodd" d="M115 1.83224C99.6623 7.55024 90.4413 17.5322 86.4923 32.6932C85.1933 37.6792 85.0023 64.4572 85.0123 239.46C85.0253 454.852 84.7943 444.826 89.9583 454.927C93.5743 462 101.483 469.603 109.286 473.506C113.126 475.428 116.883 477 117.634 477C118.737 477 119 480.376 119 494.5V512H145H171V495V478H256H341V495V512H367H393V494.5C393 480.376 393.263 477 394.366 477C395.117 477 398.874 475.428 402.714 473.506C410.517 469.603 418.426 462 422.042 454.927C427.206 444.826 426.975 454.852 426.988 239.46C426.998 64.4572 426.807 37.6792 425.508 32.6932C421.532 17.4292 411.574 6.79124 396.43 1.63124C392.093 0.153241 378.883 0.00724118 255.572 0.0782412C130.797 0.149241 119.126 0.294241 115 1.83224ZM123.903 18.0002C115.331 19.4742 108.864 24.6272 105.079 33.0002C103.054 37.4772 103.044 38.5122 103.032 239L103.02 440.5L105.374 445.556C108.092 451.393 114.778 457.566 119.935 458.998C124.809 460.352 387.191 460.352 392.065 458.998C397.222 457.566 403.908 451.393 406.626 445.556L408.98 440.5V239V37.5002L406.613 32.5002C403.818 26.5992 399.05 21.7992 393.5 19.3012C389.719 17.5992 382.359 17.4922 259 17.3552C187.225 17.2752 126.431 17.5662 123.903 18.0002ZM119 43.0002V52.0002H128H137V43.0002V34.0002H128H119V43.0002ZM241.601 35.5342C209.484 43.6342 189.813 76.4912 197.975 108.404C200.852 119.652 205.308 127.367 213.966 136.091C245.228 167.589 297.348 155.541 312.692 113.269C323.727 82.8662 306.365 47.7092 275 36.9452C266.595 34.0612 250.189 33.3682 241.601 35.5342ZM375 43.0002V52.0002H384H393V43.0002V34.0002H384H375V43.0002ZM241.892 54.3082C229.826 59.3712 222.826 65.8742 217.739 76.7442C210.377 92.4762 213.864 110.994 226.583 123.713C242.708 139.838 269.292 139.838 285.417 123.713C294.58 114.55 298.553 104.115 297.804 91.1782C296.928 76.0472 288.225 63.1892 274.148 56.2262C267.261 52.8192 265.797 52.4772 257.058 52.2282C248.889 51.9952 246.685 52.2972 241.892 54.3082ZM246 70.0772C236.797 74.2342 230 84.3372 230 93.8592C230 107.345 242.586 120 256 120C269.414 120 282 107.345 282 93.8592C282 80.2422 269.715 68.0442 256 68.0442C252.613 68.0442 248.771 68.8252 246 70.0772ZM250.455 88.4552C246.28 92.6292 247.499 98.7212 252.962 100.984C256.518 102.457 261.408 100.974 263.038 97.9292C265.815 92.7402 261.838 86.0002 256 86.0002C254.052 86.0002 252.002 86.9072 250.455 88.4552ZM243 171.081C201.645 175.013 164.823 197.308 141.562 232.5C109.485 281.031 112.285 345.165 148.504 391.5C197.919 454.716 291.324 461.766 349.675 406.685C370.383 387.138 383.996 362.634 390.118 333.887C393.271 319.083 393.265 294.888 390.104 280.043C386.328 262.305 379.955 246.898 370.438 232.5C346.741 196.649 310.653 175.101 267.5 171.038C255.486 169.906 255.351 169.906 243 171.081ZM246 188.605C223.482 191.305 206.979 197.165 190 208.492C151.524 234.159 131.571 279.406 138.489 325.303C142.011 348.665 153.684 372.299 170.367 389.848C174.914 394.63 188.344 405.343 194.282 408.923C204.674 415.188 216.203 419.86 229.5 423.193C237.131 425.107 241.163 425.45 256 425.45C270.837 425.45 274.869 425.107 282.5 423.193C301.679 418.385 314.213 412.312 329.5 400.419C344.052 389.098 354.386 376.314 362.562 359.518C376.798 330.275 378.772 298.761 368.294 268C360.304 244.542 343.005 222.197 322 208.202C309.283 199.729 290.85 192.316 276.863 190.049C269.485 188.853 251.103 187.993 246 188.605ZM245.594 205.116C210.857 208.496 179.642 230.203 164.017 261.846C148.784 292.692 150.066 329.536 167.396 359.02C180.928 382.043 204.272 399.67 230.5 406.67C239.294 409.017 242.369 409.339 256 409.339C269.506 409.339 272.737 409.008 281.119 406.761C338.223 391.451 370.705 334.517 354.412 278.293C346.21 249.989 326.098 226.755 298.811 214.061C294.24 211.935 287.125 209.273 283 208.146C276.279 206.31 272.359 205.74 258.5 204.584C256.3 204.4 250.492 204.64 245.594 205.116ZM19.9233 215.923C17.8773 217.97 17.0003 219.833 17.0003 222.137C17.0003 225.049 18.7643 227.193 32.2863 240.714C46.2193 254.648 47.8833 256 51.0973 256C56.9613 256 61.1733 250.374 59.4673 244.822C58.6073 242.028 33.6293 216.428 29.8003 214.418C25.7493 212.291 23.1613 212.685 19.9233 215.923ZM481.5 214.872C479.85 215.898 472.538 222.826 465.25 230.268C453.403 242.365 452 244.165 452 247.263C452 252.084 456.001 256 460.928 256C464.315 256 465.702 254.873 479.792 240.677C493.148 227.22 495 224.958 495 222.1C495 219.837 494.11 217.956 492.077 215.923C488.696 212.542 485.724 212.247 481.5 214.872ZM245.679 223.022C211.06 227.218 182.699 252.54 173.432 287.527C170.726 297.741 170.92 317.729 173.828 328.5C188.325 382.189 248.428 408.018 296.904 381.391C328.306 364.142 345.705 328.155 339.589 293.104C334.759 265.421 317.371 242.606 291.911 230.543C278.226 224.059 260.675 221.204 245.679 223.022ZM250.5 264.592C241.546 266.709 238.795 267.714 233.796 270.692C204.61 288.076 207.005 330.916 238 345.879C245.157 349.334 245.981 349.5 256 349.5C266.019 349.5 266.843 349.334 274 345.879C287.344 339.437 295.774 328.206 298.29 313.515C301.714 293.528 288.616 272.336 269.2 266.449C264.03 264.882 253.639 263.85 250.5 264.592ZM247.463 283.591C233.834 288.43 227.228 304.357 233.374 317.556C240.36 332.559 259.56 336.916 271.951 326.31C280.847 318.695 283.487 306.384 278.41 296.195C272.657 284.65 259.533 279.306 247.463 283.591ZM13.4213 299.419C7.54927 301.976 6.63027 309.991 11.7473 314.016C14.0713 315.844 15.8373 316 34.2123 316H54.1543L57.0773 313.077C61.8723 308.282 60.6683 302.013 54.4523 299.415C49.8053 297.474 17.8823 297.477 13.4213 299.419ZM457.329 299.458C451.318 302.072 450.207 308.361 454.923 313.077L457.846 316H477.788C496.256 316 497.919 315.851 500.288 313.988C505.612 309.8 504.241 301.325 497.881 299.108C493.108 297.444 461.328 297.718 457.329 299.458ZM46.5003 359.842C44.8503 360.898 37.5383 367.816 30.2503 375.214C18.2903 387.357 17.0003 389.01 17.0003 392.198C17.0003 398.974 22.7363 403.035 28.6663 400.459C30.2243 399.781 37.9123 392.728 45.7503 384.786C57.9463 372.426 60.0003 369.896 60.0003 367.228C60.0003 360.421 52.2343 356.173 46.5003 359.842ZM457.357 358.992C454.35 360.205 452 363.91 452 367.437C452 369.962 454.384 372.812 467.286 385.714C481.304 399.732 482.868 401 486.149 401C491.03 401 495 397.05 495 392.194C495 388.995 493.698 387.343 481.25 374.749C464.915 358.222 462.77 356.807 457.357 358.992ZM119 435V444H128H137V435V426H128H119V435ZM375 435V444H384H393V435V426H384H375V435ZM137 486.5V495H145H153V486.5V478H145H137V486.5ZM359 486.5V495H367H375V486.5V478H367H359V486.5Z" fill="#D9D9D9"/>
</g>
<defs>
<clipPath id="clip0_495_77">
<rect width="512" height="512" fill="white"/>
</clipPath>
</defs>
</svg>
