<svg width="512" height="512" viewBox="0 0 512 512" fill="none" xmlns="http://www.w3.org/2000/svg">
<g clip-path="url(#clip0_495_73)">
<path fill-rule="evenodd" clip-rule="evenodd" d="M128.341 64.3111C60.054 99.6151 3.241 129.357 2.091 130.405C0.71 131.663 0 133.532 0 135.908C0 138.883 2.707 143.578 15.621 163.003C24.213 175.927 32.363 187.702 33.733 189.172C35.487 191.053 37.664 192.041 41.093 192.513C45.876 193.171 48.527 194.699 54.5 200.243C60.468 205.782 65.569 207.501 76 207.487C86.919 207.473 90.445 206.098 98.961 198.535C108.083 190.433 115.079 190.407 124.245 198.443C132.791 205.935 136.908 207.502 148 207.487C158.919 207.473 162.445 206.098 170.961 198.535C180.083 190.433 187.079 190.407 196.245 198.443C203.729 205.004 209.137 207.385 217.559 207.828C221.442 208.032 226.279 207.741 228.309 207.18L232 206.161V259.081V312H157.866C104.498 312 82.647 312.325 79.858 313.161C67.793 316.775 61.2 330.84 65.222 344.384C66.83 349.796 74.204 357.17 79.616 358.778C82.697 359.693 102.366 360 157.866 360H232V412V464H213.866C193.594 464 189.874 464.704 184.115 469.633C178.236 474.666 175.712 480.897 176.182 489.218L176.567 496.026L143.089 495.763L109.612 495.5L96.898 463.75L84.183 432L88.842 431.978C93.93 431.954 101.136 429.128 104.882 425.688C110.943 420.122 113.504 408.796 110.778 399.616C109.17 394.204 101.796 386.83 96.384 385.222C90.76 383.552 21.405 383.499 15.858 385.161C6.966 387.825 0 397.473 0 407.123C0 415.049 1.918 419.973 6.972 425.028C11.813 429.868 16.95 432 23.776 432H27.819L13.91 466.726C6.259 485.825 0 502.846 0 504.551C0 506.499 0.861 508.46 2.314 509.826L4.629 512H256.01H507.391L510.195 509.313C512.323 507.275 513 505.691 513 502.754C513 500.624 512.628 499.112 512.174 499.392C511.72 499.673 505.239 484.625 497.772 465.952L484.197 432L488.848 431.978C493.939 431.954 501.16 429.118 504.861 425.688C509.236 421.634 513.002 412.31 512.985 405.573C512.975 401.706 512.651 400.002 512.093 400.883C511.453 401.894 511.023 401.38 510.493 398.97C509.504 394.463 501.614 386.775 496.384 385.222C490.76 383.552 421.405 383.499 415.858 385.161C406.966 387.825 400 397.473 400 407.123C400 415.049 401.918 419.973 406.972 425.028C411.813 429.868 416.95 432 423.774 432H427.817L415.102 463.75L402.388 495.5L368.861 495.763L335.333 496.026L335.792 490.496C336.475 482.261 334.425 476.327 329.051 470.976C322.753 464.705 319.627 464 298.134 464H280V412V360L354.75 359.978C427.828 359.957 429.601 359.91 434 357.916C440.048 355.174 442.813 352.458 445.623 346.5C448.274 340.878 448.691 334.059 446.778 327.616C445.17 322.204 437.796 314.83 432.384 313.222C429.303 312.307 409.634 312 354.134 312H280V259.052V206.104L283.075 207.176C284.767 207.766 289.604 208.042 293.825 207.79C302.817 207.253 308.18 204.9 315.132 198.443C323.761 190.428 331.842 190.456 340.822 198.53C343.577 201.007 348.39 204.205 351.517 205.637C356.548 207.94 358.144 208.188 365.352 207.793C374.852 207.271 380.012 205.056 387.132 198.443C395.701 190.484 403.839 190.461 412.657 198.372C421.083 205.932 425.082 207.494 436 207.494C446.914 207.494 450.918 205.931 459.331 198.383C463.907 194.277 468.954 192.018 473.576 192.006C476.567 191.998 478.047 190.084 495.628 163.5C504.358 150.3 511.837 139.35 512.25 139.167C512.663 138.983 512.964 136.958 512.921 134.667C512.878 132.375 512.62 131.049 512.348 131.72C512.017 132.535 511.13 132.152 509.677 130.568C508.479 129.262 451.546 99.3511 383.158 64.0971C293 17.6221 257.947 0.0171174 255.658 0.0611174C253.514 0.102117 212.638 20.7291 128.341 64.3111ZM201.225 78.5571L154.949 128H201.475H248V78.5001C248 51.2751 247.887 29.0261 247.75 29.0571C247.613 29.0891 226.676 51.3641 201.225 78.5571ZM264 78.2861V128H310.54H357.079L311.881 79.7501C287.022 53.2121 266.079 30.8411 265.341 30.0361C264.218 28.8091 264 36.6481 264 78.2861ZM133.5 80.6271C88.4 103.985 49.475 124.178 47 125.501L42.5 127.907L87.203 127.953L131.905 128L169.614 87.7501C190.353 65.6121 209.37 45.3621 211.873 42.7501C214.377 40.1381 216.217 38.0361 215.962 38.0791C215.708 38.1231 178.6 57.2701 133.5 80.6271ZM300.089 42.6411C302.613 45.3141 321.647 65.6121 342.386 87.7501L380.095 128H424.714C449.255 128 469.118 127.784 468.854 127.521C468.591 127.258 436.454 110.574 397.438 90.4451C358.422 70.3171 319.525 50.2341 311 45.8161L295.5 37.7821L300.089 42.6411ZM0.272 136C0.272 138.475 0.467 139.488 0.706 138.25C0.944 137.012 0.944 134.988 0.706 133.75C0.467 132.512 0.272 133.525 0.272 136ZM24.167 144.879C24.35 145.363 29 152.545 34.5 160.839C42.869 173.46 44.989 176.027 47.5 176.583C52.048 177.589 59.201 181.481 61.983 184.463C66.276 189.065 70.732 191.231 75.905 191.231C81.503 191.231 83.771 190.174 89.489 184.903C91.799 182.774 96.28 179.845 99.447 178.396C104.557 176.056 106.121 175.81 113.352 176.209C122.574 176.718 129.351 179.533 134.5 184.996C138.687 189.438 142.576 191.231 148.024 191.231C153.614 191.231 155.248 190.431 162.335 184.23C169.735 177.754 175.977 175.622 185.817 176.21C194.818 176.747 200.178 179.098 207.132 185.557C216.016 193.809 223.516 193.579 233.72 184.743C241.834 177.716 247.781 175.61 257.817 176.21C266.818 176.747 272.178 179.098 279.132 185.557C284.479 190.523 289.753 192.321 295.278 191.06C299.331 190.135 300.055 189.672 307.085 183.516C313.652 177.764 320.264 175.639 329.817 176.21C338.818 176.747 344.178 179.098 351.132 185.557C360.016 193.809 367.516 193.579 377.72 184.743C385.834 177.716 391.781 175.61 401.817 176.21C410.818 176.747 416.178 179.098 423.132 185.557C431.701 193.516 439.839 193.539 448.657 185.628C453.849 180.97 459.663 177.65 464.5 176.581C467.011 176.027 469.129 173.462 477.5 160.839C483 152.545 487.65 145.363 487.833 144.879C488.024 144.375 389.128 144 256 144C122.872 144 23.976 144.375 24.167 144.879ZM251.25 193.109L248 194.057V253.029V312H256H264V253.535C264 198.87 263.886 195.011 262.25 194.153C259.214 192.563 254.616 192.126 251.25 193.109ZM85 329.289C81.223 331.207 79.564 335.319 81.195 338.721C81.913 340.217 83.625 342.013 85 342.711C86.997 343.724 121.673 343.932 257.222 343.74L426.945 343.5L429.139 341.306C432.014 338.43 432.014 333.57 429.139 330.694L426.945 328.5L257.222 328.26C121.673 328.068 86.997 328.276 85 329.289ZM248 412V464H256H264V412V360H256H248V412ZM21 401.273C17.219 403.217 15.566 407.322 17.195 410.721C19.679 415.9 20.732 416.033 57.223 415.756C90.443 415.504 90.98 415.467 93.14 413.306C94.458 411.987 95.333 409.869 95.333 408C95.333 406.131 94.458 404.013 93.14 402.694C90.98 400.533 90.443 400.496 57.223 400.244C31.304 400.048 22.921 400.286 21 401.273ZM421 401.273C417.219 403.217 415.566 407.322 417.195 410.721C419.679 415.9 420.732 416.033 457.223 415.756C490.443 415.504 490.98 415.467 493.14 413.306C494.458 411.987 495.333 409.869 495.333 408C495.333 406.131 494.458 404.013 493.14 402.694C490.98 400.533 490.443 400.496 457.223 400.244C431.304 400.048 422.921 400.286 421 401.273ZM0.328 407.5C0.333 411.35 0.513 412.802 0.73 410.728C0.946 408.653 0.943 405.503 0.722 403.728C0.501 401.952 0.324 403.65 0.328 407.5ZM44.563 435.215C43.812 437.022 41.614 442.438 39.677 447.25L36.157 456H56H75.844L71.108 444.25L66.371 432.5L56.149 432.215L45.928 431.929L44.563 435.215ZM444.563 435.215C443.812 437.022 441.614 442.438 439.677 447.25L436.157 456H456H475.844L471.108 444.25L466.371 432.5L456.149 432.215L445.928 431.929L444.563 435.215ZM28.555 475.233C27.808 477.03 25.614 482.438 23.677 487.25L20.157 496H56H91.844L87.106 484.25L82.368 472.5L56.14 472.233L29.912 471.967L28.555 475.233ZM428.555 475.233C427.808 477.03 425.614 482.438 423.677 487.25L420.157 496H456H491.844L487.106 484.25L482.368 472.5L456.14 472.233L429.912 471.967L428.555 475.233ZM197 481.281C193.221 483.212 191.565 487.321 193.195 490.721C195.767 496.083 194.915 496.016 257.223 495.748L314.945 495.5L317.139 493.306C318.458 491.987 319.333 489.869 319.333 488C319.333 486.131 318.458 484.013 317.139 482.694L314.945 480.5L257.223 480.252C211.958 480.057 198.96 480.279 197 481.281ZM0.272 504C0.272 506.475 0.467 507.488 0.706 506.25C0.944 505.012 0.944 502.988 0.706 501.75C0.467 500.512 0.272 501.525 0.272 504Z" fill="white"/>
</g>
<defs>
<clipPath id="clip0_495_73">
<rect width="512" height="512" fill="white"/>
</clipPath>
</defs>
</svg>
