<svg width="465" height="481" viewBox="0 0 465 481" fill="none" xmlns="http://www.w3.org/2000/svg">
<path fill-rule="evenodd" clip-rule="evenodd" d="M242.173 2.314C240.05 4.575 239.999 5.27 239.999 32.14C239.999 59.604 240.003 59.655 242.313 61.826C243.586 63.022 245.386 64 246.313 64C247.861 64 247.997 66.727 247.979 97.25L247.96 130.5L239.229 135.971C229.261 142.218 214.765 155.674 208.495 164.5C202.864 172.427 197.564 183.153 194.818 192.179C192.674 199.23 192.579 201.265 192.242 247.315C192.049 273.614 191.578 294.967 191.195 294.767C179.698 288.767 178.708 288.5 167.978 288.5C158.125 288.5 157.037 288.707 150.842 291.757C147.203 293.548 142.375 296.81 140.113 299.006L135.999 302.998L131.916 299.036C127.661 294.906 117.022 289 113.839 289C112.181 289 111.999 288.058 111.999 279.474V269.949L114.749 271.349C119.123 273.577 127.951 275.846 134.999 276.556C151.227 278.188 168.699 270.46 179.745 256.765C182.962 252.775 183.992 250.634 183.995 247.924C184 243.212 181.946 241.431 169.129 235.035L158.758 229.861L161.231 227.18C168.013 219.831 175.512 205.61 180.557 190.533C186.535 172.668 185.214 169.172 171.418 166.346C162.847 164.591 131.954 163.881 124.249 165.262L119.999 166.024V153.186C119.999 141.06 119.871 140.228 117.685 138.174C114.429 135.116 109.87 135.426 100.971 139.312C80.476 148.26 65.127 164.085 58.957 182.626L56.888 188.843L49.768 186.422C40.725 183.346 36.987 183.32 34.173 186.314C28.255 192.614 34.201 228.999 43.734 244.814C46.714 249.758 46.9941 250.761 45.8811 252.5C39.5521 262.387 33.401 278.859 32.376 288.668L31.767 294.5L27.62 294.168C25.339 293.986 19.204 294.308 13.986 294.884C5.71505 295.798 4.21105 296.264 2.24905 298.522C-0.504953 301.691 -0.641952 305.988 1.91105 309.139C3.78305 311.451 4.18505 311.501 21.161 311.568C40.276 311.643 46.214 312.871 58.249 319.237L63.999 322.279V328.48C63.999 331.891 64.618 336.739 65.375 339.254L66.751 343.825L62.252 344.958C50.675 347.873 40.762 356.065 35.581 366.997C32.746 372.979 32.499 374.342 32.499 384.021C32.499 393.901 32.7 394.95 35.796 401.239C41.276 412.371 50.689 420.13 62.242 423.04L66.73 424.17L65.247 429.23C64.259 432.601 63.906 437.012 64.191 442.441C64.978 457.431 73.395 469.973 86.996 476.418C92.978 479.253 94.341 479.5 104.02 479.5C113.873 479.5 114.961 479.293 121.156 476.243C124.795 474.452 129.632 471.181 131.905 468.975L136.039 464.964L140.269 469.104C142.595 471.381 147.424 474.651 150.999 476.372C157.013 479.266 158.286 479.5 168.02 479.5C177.834 479.5 178.976 479.285 185.02 476.305C188.583 474.548 193.411 471.269 195.749 469.018L199.999 464.926L204.249 469.085C206.586 471.372 211.424 474.651 214.999 476.372L221.499 479.5L332.416 479.767L443.334 480.034L445.666 477.843C447.284 476.323 447.999 474.532 447.999 472C447.999 467.528 445.503 465.046 438.499 462.554C425.55 457.947 409.062 444.699 402.711 433.8L399.973 429.099L400.236 394.414L400.499 359.728L405.999 358.33C427.155 352.954 447.601 335.386 457.111 314.413C465.904 295.02 466.31 268.747 458.411 230.226C453.256 205.085 441.452 166.306 437.72 162.25L435.65 160H392.169H348.688L339.093 150.714C333.684 145.478 325.691 139.044 320.769 135.964L312.038 130.5L312.019 97.25C312 65.718 312.093 64 313.825 64C314.829 64 316.629 62.958 317.825 61.686C319.948 59.425 319.999 58.73 319.999 31.86C319.999 4.396 319.995 4.345 317.685 2.174C315.398 0.0259998 314.943 0 279.859 0H244.348L242.173 2.314ZM255.999 32C255.999 46.824 256.133 48 257.825 48C258.829 48 260.629 49.042 261.825 50.314C263.919 52.544 263.999 53.426 263.999 74.314V96H279.999H295.999V74.174C295.999 52.653 296.031 52.318 298.313 50.174C299.586 48.978 301.386 48 302.313 48C303.824 48 303.999 46.338 303.999 32V16H279.999H255.999V32ZM263.999 120V128H279.999H295.999V120V112H279.999H263.999V120ZM251.525 148.057C231.048 160.023 216.406 177.979 210.39 198.5C208.803 203.916 208.596 211.341 208.26 274.75C207.896 343.418 207.931 345 209.803 345C210.856 345 214.368 346.344 217.608 347.987C220.848 349.63 223.612 350.98 223.749 350.987C223.886 350.994 223.999 330.603 223.999 305.674V260.349L226.313 258.174C228.621 256.007 228.77 256 274.794 256H320.961L321.431 253.75C321.69 252.512 322.619 247 323.497 241.5C325.548 228.648 331.894 202.581 336.398 188.51C339.737 178.076 339.833 177.394 338.286 175.01C332.238 165.688 317.905 152.894 306.996 147.079L301.219 144H279.843H258.467L251.525 148.057ZM96.159 161.052C83.7711 169.325 75.302 182.199 72.974 196.301C71.023 208.112 67.43 210.105 55.491 205.997C52.29 204.896 49.449 204.217 49.177 204.489C48.394 205.271 51.825 221.46 54.013 227.309C57.559 236.785 57.555 236.784 65.349 229.94C74.549 221.863 84.455 215.295 96.729 209.136C115.888 199.521 121.881 198.116 125.825 202.314C128.781 205.461 128.744 210.984 125.749 213.668C124.511 214.777 120.799 216.731 117.499 218.01C107.894 221.732 98.119 226.807 89.208 232.699C80.139 238.696 68.999 248.488 68.999 250.463C68.999 252.726 92.693 273 95.338 273C95.702 273 95.999 268.353 95.999 262.674C95.999 253.174 96.184 252.175 98.313 250.174C101.649 247.04 105.909 247.436 112.759 251.516C125.259 258.963 138.119 261.565 148.071 258.662C153.098 257.196 161.999 252.291 161.999 250.987C161.999 250.675 157.42 248.188 151.823 245.46C138.331 238.883 135.999 236.898 135.999 231.988C135.999 228.57 136.605 227.637 141.592 223.377C150.882 215.439 158.63 203.012 164.032 187.382L165.8 182.264L159.753 181.632C151.069 180.724 135.636 180.91 127.499 182.021C109.479 184.479 109.137 184.479 106.468 181.971C104.124 179.769 103.999 179.076 103.999 168.326C103.999 162.097 103.6 157 103.113 157C102.626 157 99.496 158.823 96.159 161.052ZM241.003 175.765C227.838 189.389 224.029 199.656 224.011 221.576C224 235.004 224.106 235.751 226.313 237.826C229.485 240.805 234.956 240.739 237.825 237.686C239.739 235.648 240 234.242 240.005 225.936C240.016 206.925 243.479 197.065 253.921 186.301C260.734 179.278 261.844 176.536 259.617 172.229C257.879 168.867 256.249 168 251.671 168C249.034 168 247.255 169.295 241.003 175.765ZM353.546 190.25C349.697 202.41 343.01 227.082 343.002 229.155C343 229.515 345.586 229.106 348.749 228.245C356.927 226.02 367.216 226.322 374.305 228.996C377.498 230.2 385.453 234.715 391.983 239.03C408.249 249.777 409.486 250.348 416.499 250.337C421.735 250.329 423.815 249.664 432.829 245.115L443.158 239.902L442.457 235.701C441.198 228.161 434.214 201.788 430.023 188.75L425.925 176H391.991H358.057L353.546 190.25ZM348.359 245.689L339.22 248.219L338.556 252.36C337.064 261.657 336.231 281.098 337.021 288.145C340.071 315.339 359.4 337.23 385.092 342.586C391.126 343.845 392.887 343.841 399.03 342.561C416.75 338.866 432.441 326.452 440.82 309.5C444.546 301.962 445.828 297.465 446.964 287.949C447.808 280.883 446.978 259.646 445.813 258.481C445.523 258.191 441.327 259.854 436.487 262.177C428.683 265.921 426.704 266.446 418.995 266.815C406.477 267.413 401.776 265.74 385.309 254.826C371.884 245.928 365.419 242.917 360.09 243.079C358.665 243.122 353.386 244.297 348.359 245.689ZM55.085 270.972C51.878 277.937 49.309 287.081 48.807 293.319L48.499 297.139L55.267 299.515C58.989 300.822 63.835 302.904 66.036 304.141L70.038 306.39L71.716 303.945C74.556 299.807 80.266 294.948 85.338 292.353L90.176 289.877L82.838 284.837C74.496 279.108 69.549 275.161 62.794 268.844L58.09 264.445L55.085 270.972ZM239.999 336V400H279.999H319.999V336V272H279.999H239.999V336ZM99.085 305.088C86.659 307.519 78.294 320.345 81.043 332.75C86.571 357.691 122.198 357.471 126.915 332.466C130.047 315.867 115.771 301.824 99.085 305.088ZM161.712 305.437C138.523 311.6 139.46 345.858 162.956 350.897C184.993 355.623 200.25 329.668 185.627 312.328C180.381 306.107 170.215 303.178 161.712 305.437ZM335.999 371.145V411.651L333.685 413.826C331.404 415.968 330.883 416 298.101 416C279.803 416 265.004 416.337 265.214 416.75C271.466 429.048 271.499 429.172 271.499 440C271.499 450.828 271.466 450.952 265.214 463.25C265.004 463.663 282.186 464 303.395 464C336.802 464 342.507 463.781 346.057 462.36C348.575 461.352 350.51 459.786 351.077 458.295C351.605 456.906 351.945 432.293 351.872 400.685L351.746 345.5L343.872 338.069L335.999 330.638V371.145ZM367.999 402.294V449.406L372.068 445.453C374.306 443.279 377.906 438.861 380.068 435.636L383.999 429.772V394.855C383.999 367.763 383.719 359.864 382.749 359.608C382.062 359.428 378.461 358.357 374.749 357.23L367.999 355.181V402.294ZM65.712 361.4C51.602 365.26 44.43 381.647 51.143 394.691C61.264 414.358 90.824 410.154 94.915 388.466C98.151 371.316 82.498 356.808 65.712 361.4ZM129.712 361.4C115.602 365.26 108.43 381.647 115.143 394.691C125.264 414.358 154.824 410.154 158.915 388.466C162.151 371.316 146.498 356.808 129.712 361.4ZM193.82 361.373C170.017 367.895 171.313 402.347 195.533 406.916C217.462 411.053 232.099 385.49 217.627 368.328C212.364 362.086 202.128 359.096 193.82 361.373ZM97.82 417.373C74.017 423.895 75.313 458.347 99.533 462.916C121.462 467.053 136.099 441.49 121.627 424.328C116.364 418.086 106.128 415.096 97.82 417.373ZM161.82 417.373C138.017 423.895 139.313 458.347 163.533 462.916C185.462 467.053 200.099 441.49 185.627 424.328C180.364 418.086 170.128 415.096 161.82 417.373ZM225.712 417.4C211.602 421.26 204.43 437.647 211.143 450.691C221.264 470.358 250.824 466.154 254.915 444.466C258.151 427.316 242.498 412.808 225.712 417.4ZM384.409 456.561L377.318 464H392.003H406.688L399.404 456.5C395.397 452.375 391.98 449.027 391.809 449.061C391.639 449.095 388.308 452.47 384.409 456.561Z" fill="#D9D9D9"/>
</svg>
