<svg width="464" height="481" viewBox="0 0 464 481" fill="none" xmlns="http://www.w3.org/2000/svg">
<path fill-rule="evenodd" clip-rule="evenodd" d="M242.087 2.314C239.964 4.575 239.913 5.27 239.913 32.14C239.913 59.604 239.917 59.655 242.227 61.826C243.5 63.022 245.3 64 246.227 64C247.775 64 247.911 66.727 247.893 97.25L247.874 130.5L239.143 135.971C229.175 142.218 214.679 155.674 208.409 164.5C202.778 172.427 197.478 183.153 194.732 192.179C192.588 199.23 192.493 201.265 192.156 247.315C191.963 273.614 191.492 294.967 191.109 294.767C179.612 288.767 178.622 288.5 167.892 288.5C158.039 288.5 156.951 288.707 150.756 291.757C147.117 293.548 142.289 296.81 140.027 299.006L135.913 302.998L131.83 299.036C127.575 294.906 116.936 289 113.753 289C112.095 289 111.913 288.058 111.913 279.474V269.949L114.663 271.349C119.037 273.577 127.865 275.846 134.913 276.556C151.141 278.188 168.613 270.46 179.659 256.765C182.876 252.775 183.906 250.634 183.909 247.924C183.914 243.212 181.86 241.431 169.043 235.035L158.672 229.861L161.145 227.18C167.927 219.831 175.426 205.61 180.471 190.533C186.449 172.668 185.128 169.172 171.332 166.346C162.761 164.591 131.868 163.881 124.163 165.262L119.913 166.024V153.186C119.913 141.06 119.785 140.228 117.599 138.174C114.343 135.116 109.784 135.426 100.885 139.312C80.3901 148.26 65.0411 164.085 58.8711 182.626L56.8021 188.843L49.6821 186.422C40.6391 183.346 36.9011 183.32 34.0871 186.314C28.1691 192.614 34.1151 228.999 43.6481 244.814C46.6281 249.758 46.9081 250.761 45.7951 252.5C39.4661 262.387 33.3151 278.859 32.2901 288.668L31.6811 294.5L27.5341 294.168C25.2531 293.986 19.1181 294.308 13.9001 294.884C5.62911 295.798 4.12511 296.264 2.16311 298.522C-0.59089 301.691 -0.72789 305.988 1.82511 309.139C3.69711 311.451 4.09911 311.501 21.0751 311.568C40.1901 311.643 46.1281 312.871 58.1631 319.237L63.9131 322.279V328.48C63.9131 331.891 64.5321 336.739 65.2891 339.254L66.6651 343.825L62.1661 344.958C50.5891 347.873 40.6761 356.065 35.4951 366.997C32.6601 372.979 32.4131 374.342 32.4131 384.021C32.4131 393.901 32.6141 394.95 35.7101 401.239C41.1901 412.371 50.6031 420.13 62.1561 423.04L66.6441 424.17L65.1611 429.23C64.1731 432.601 63.8201 437.012 64.1051 442.441C64.8921 457.431 73.3091 469.973 86.9101 476.418C92.8921 479.253 94.2551 479.5 103.934 479.5C113.787 479.5 114.875 479.293 121.07 476.243C124.709 474.452 129.546 471.181 131.819 468.975L135.953 464.964L140.183 469.104C142.509 471.381 147.338 474.651 150.913 476.372C156.927 479.266 158.2 479.5 167.934 479.5C177.748 479.5 178.89 479.285 184.934 476.305C188.497 474.548 193.325 471.269 195.663 469.018L199.913 464.926L204.163 469.085C206.5 471.372 211.338 474.651 214.913 476.372L221.413 479.5L332.33 479.767L443.248 480.034L445.58 477.843C447.198 476.323 447.913 474.532 447.913 472C447.913 467.528 445.417 465.046 438.413 462.554C425.464 457.947 408.976 444.699 402.625 433.8L399.887 429.099L400.15 394.414L400.413 359.728L405.913 358.33C427.069 352.954 447.515 335.386 457.025 314.413C465.818 295.02 466.224 268.747 458.325 230.226C453.17 205.085 441.366 166.306 437.634 162.25L435.564 160H392.083H348.602L339.007 150.714C333.598 145.478 325.605 139.044 320.683 135.964L311.952 130.5L311.933 97.25C311.914 65.718 312.007 64 313.739 64C314.743 64 316.543 62.958 317.739 61.686C319.862 59.425 319.913 58.73 319.913 31.86C319.913 4.396 319.909 4.345 317.599 2.174C315.312 0.0259998 314.857 0 279.773 0H244.262L242.087 2.314ZM255.913 32C255.913 46.824 256.047 48 257.739 48C258.743 48 260.543 49.042 261.739 50.314C263.833 52.544 263.913 53.426 263.913 74.314V96H279.913H295.913V74.174C295.913 52.653 295.945 52.318 298.227 50.174C299.5 48.978 301.3 48 302.227 48C303.738 48 303.913 46.338 303.913 32V16H279.913H255.913V32ZM263.913 120V128H279.913H295.913V120V112H279.913H263.913V120ZM251.439 148.057C230.962 160.023 216.32 177.979 210.304 198.5C208.717 203.916 208.51 211.341 208.174 274.75C207.81 343.418 207.845 345 209.717 345C210.77 345 214.282 346.344 217.522 347.987C220.762 349.63 223.526 350.98 223.663 350.987C223.8 350.994 223.913 330.603 223.913 305.674V260.349L226.227 258.174C228.535 256.007 228.684 256 274.708 256H320.875L321.345 253.75C321.604 252.512 322.533 247 323.411 241.5C325.462 228.648 331.808 202.581 336.312 188.51C339.651 178.076 339.747 177.394 338.2 175.01C332.152 165.688 317.819 152.894 306.91 147.079L301.133 144H279.757H258.381L251.439 148.057ZM96.0731 161.052C83.6851 169.325 75.2161 182.199 72.8881 196.301C70.9371 208.112 67.3441 210.105 55.4051 205.997C52.2041 204.896 49.3631 204.217 49.0911 204.489C48.3081 205.271 51.7391 221.46 53.9271 227.309C57.4731 236.785 57.4691 236.784 65.2631 229.94C74.4631 221.863 84.3691 215.295 96.6431 209.136C115.802 199.521 121.795 198.116 125.739 202.314C128.695 205.461 128.658 210.984 125.663 213.668C124.425 214.777 120.713 216.731 117.413 218.01C107.808 221.732 98.0331 226.807 89.1221 232.699C80.0531 238.696 68.9131 248.488 68.9131 250.463C68.9131 252.726 92.6071 273 95.2521 273C95.6161 273 95.9131 268.353 95.9131 262.674C95.9131 253.174 96.0981 252.175 98.2271 250.174C101.563 247.04 105.823 247.436 112.673 251.516C125.173 258.963 138.033 261.565 147.985 258.662C153.012 257.196 161.913 252.291 161.913 250.987C161.913 250.675 157.334 248.188 151.737 245.46C138.245 238.883 135.913 236.898 135.913 231.988C135.913 228.57 136.519 227.637 141.506 223.377C150.796 215.439 158.544 203.012 163.946 187.382L165.714 182.264L159.667 181.632C150.983 180.724 135.55 180.91 127.413 182.021C109.393 184.479 109.051 184.479 106.382 181.971C104.038 179.769 103.913 179.076 103.913 168.326C103.913 162.097 103.514 157 103.027 157C102.54 157 99.4101 158.823 96.0731 161.052ZM240.917 175.765C227.752 189.389 223.943 199.656 223.925 221.576C223.914 235.004 224.02 235.751 226.227 237.826C229.399 240.805 234.87 240.739 237.739 237.686C239.653 235.648 239.914 234.242 239.919 225.936C239.93 206.925 243.393 197.065 253.835 186.301C260.648 179.278 261.758 176.536 259.531 172.229C257.793 168.867 256.163 168 251.585 168C248.948 168 247.169 169.295 240.917 175.765ZM353.46 190.25C349.611 202.41 342.924 227.082 342.916 229.155C342.914 229.515 345.5 229.106 348.663 228.245C356.841 226.02 367.13 226.322 374.219 228.996C377.412 230.2 385.367 234.715 391.897 239.03C408.163 249.777 409.4 250.348 416.413 250.337C421.649 250.329 423.729 249.664 432.743 245.115L443.072 239.902L442.371 235.701C441.112 228.161 434.128 201.788 429.937 188.75L425.839 176H391.905H357.971L353.46 190.25ZM348.273 245.689L339.134 248.219L338.47 252.36C336.978 261.657 336.145 281.098 336.935 288.145C339.985 315.339 359.314 337.23 385.006 342.586C391.04 343.845 392.801 343.841 398.944 342.561C416.664 338.866 432.355 326.452 440.734 309.5C444.46 301.962 445.742 297.465 446.878 287.949C447.722 280.883 446.892 259.646 445.727 258.481C445.437 258.191 441.241 259.854 436.401 262.177C428.597 265.921 426.618 266.446 418.909 266.815C406.391 267.413 401.69 265.74 385.223 254.826C371.798 245.928 365.333 242.917 360.004 243.079C358.579 243.122 353.3 244.297 348.273 245.689ZM54.9991 270.972C51.7921 277.937 49.2231 287.081 48.7211 293.319L48.4131 297.139L55.1811 299.515C58.9031 300.822 63.7491 302.904 65.9501 304.141L69.9521 306.39L71.6301 303.945C74.4701 299.807 80.1801 294.948 85.2521 292.353L90.0901 289.877L82.7521 284.837C74.4101 279.108 69.4631 275.161 62.7081 268.844L58.0041 264.445L54.9991 270.972ZM239.913 336V400H279.913H319.913V336V272H279.913H239.913V336ZM98.9991 305.088C86.5731 307.519 78.2081 320.345 80.9571 332.75C86.4851 357.691 122.112 357.471 126.829 332.466C129.961 315.867 115.685 301.824 98.9991 305.088ZM161.626 305.437C138.437 311.6 139.374 345.858 162.87 350.897C184.907 355.623 200.164 329.668 185.541 312.328C180.295 306.107 170.129 303.178 161.626 305.437ZM335.913 371.145V411.651L333.599 413.826C331.318 415.968 330.797 416 298.015 416C279.717 416 264.918 416.337 265.128 416.75C271.38 429.048 271.413 429.172 271.413 440C271.413 450.828 271.38 450.952 265.128 463.25C264.918 463.663 282.1 464 303.309 464C336.716 464 342.421 463.781 345.971 462.36C348.489 461.352 350.424 459.786 350.991 458.295C351.519 456.906 351.859 432.293 351.786 400.685L351.66 345.5L343.786 338.069L335.913 330.638V371.145ZM367.913 402.294V449.406L371.982 445.453C374.22 443.279 377.82 438.861 379.982 435.636L383.913 429.772V394.855C383.913 367.763 383.633 359.864 382.663 359.608C381.976 359.428 378.375 358.357 374.663 357.23L367.913 355.181V402.294ZM65.6261 361.4C51.5161 365.26 44.3441 381.647 51.0571 394.691C61.1781 414.358 90.7381 410.154 94.8291 388.466C98.0651 371.316 82.4121 356.808 65.6261 361.4ZM129.626 361.4C115.516 365.26 108.344 381.647 115.057 394.691C125.178 414.358 154.738 410.154 158.829 388.466C162.065 371.316 146.412 356.808 129.626 361.4ZM193.734 361.373C169.931 367.895 171.227 402.347 195.447 406.916C217.376 411.053 232.013 385.49 217.541 368.328C212.278 362.086 202.042 359.096 193.734 361.373ZM97.7341 417.373C73.9311 423.895 75.2271 458.347 99.4471 462.916C121.376 467.053 136.013 441.49 121.541 424.328C116.278 418.086 106.042 415.096 97.7341 417.373ZM161.734 417.373C137.931 423.895 139.227 458.347 163.447 462.916C185.376 467.053 200.013 441.49 185.541 424.328C180.278 418.086 170.042 415.096 161.734 417.373ZM225.626 417.4C211.516 421.26 204.344 437.647 211.057 450.691C221.178 470.358 250.738 466.154 254.829 444.466C258.065 427.316 242.412 412.808 225.626 417.4ZM384.323 456.561L377.232 464H391.917H406.602L399.318 456.5C395.311 452.375 391.894 449.027 391.723 449.061C391.553 449.095 388.222 452.47 384.323 456.561Z" fill="#D9D9D9"/>
</svg>
